<?xml version="1.0" encoding="UTF-8" standalone="no"?>
<!DOCTYPE svg PUBLIC "-//W3C//DTD SVG 1.1//EN" "http://www.w3.org/Graphics/SVG/1.1/DTD/svg11.dtd">
<svg width="100%" height="100%" viewBox="0 0 800 600" version="1.1" xmlns="http://www.w3.org/2000/svg" xmlns:xlink="http://www.w3.org/1999/xlink" xml:space="preserve" xmlns:serif="http://www.serif.com/" style="fill-rule:evenodd;clip-rule:evenodd;stroke-linejoin:round;stroke-miterlimit:2;">
    <g transform="matrix(1.85199,0,0,1.85199,-911.773,-59.7768)">
        <clipPath id="_clip1">
            <rect x="558" y="32.24" width="324" height="324"/>
        </clipPath>
        <g clip-path="url(#_clip1)">
            <g transform="matrix(1.27009,0,0,-1.27009,450.042,464.325)">
                <path d="M340.16,212.6C340.16,161.95 310.64,118.18 267.85,97.6C260.63,94.12 253.03,91.3 245.13,89.23C240.2,87.93 235.16,86.92 230.02,86.22L229.98,86.22C226.15,85.69 222.28,85.34 218.35,85.17C218.02,85.15 217.69,85.14 217.36,85.14C215.78,85.07 214.2,85.04 212.6,85.04C142.15,85.04 85.04,142.15 85.04,212.6C85.04,283.05 142.15,340.16 212.6,340.16C264.59,340.16 309.31,309.06 329.17,264.45C330.92,260.53 332.47,256.51 333.82,252.39C333.9,252.15 333.98,251.9 334.06,251.66C335.68,246.63 336.99,241.47 337.98,236.19C338.1,235.53 338.22,234.88 338.33,234.22C338.52,233.11 338.7,232 338.86,230.88C339.72,224.91 340.16,218.81 340.16,212.6Z" style="fill:rgb(144,212,246);fill-rule:nonzero;"/>
            </g>
            <g transform="matrix(1.27009,0,0,-1.27009,450.042,510.81)">
                <path d="M340.16,249.2C340.16,198.55 310.64,154.78 267.85,134.2C260.63,130.72 253.03,127.9 245.13,125.83L151.37,155.62L223.15,180.42L221.94,265.09L256.77,335.97L329.17,301.05C330.92,297.13 332.47,293.11 333.82,288.99C333.9,288.75 333.98,288.5 334.06,288.26C335.68,283.23 336.99,278.07 337.98,272.79C338.1,272.13 338.22,271.48 338.33,270.82C338.52,269.71 338.7,268.6 338.86,267.48C339.72,261.51 340.16,255.41 340.16,249.2Z" style="fill:rgb(82,195,241);fill-rule:nonzero;"/>
            </g>
            <g transform="matrix(0.892935,0.903214,-0.903214,0.892935,717.21,-175.973)">
                <path d="M201.742,198.832C218.515,198.835 232.113,212.419 232.113,212.419C232.113,212.419 218.515,226.017 201.742,226.014C184.969,226.011 171.367,216.585 171.371,212.427C171.369,208.262 184.969,198.829 201.742,198.832Z" style="fill:rgb(149,193,39);fill-rule:nonzero;"/>
            </g>
            <g transform="matrix(-0.861348,0.933385,-0.933385,-0.861348,1078.35,192.406)">
                <path d="M201.125,193.33C200.499,206.998 199.872,220.666 199.246,234.335C199.19,235.543 201.069,235.618 201.125,234.41C201.751,220.742 202.378,207.074 203.004,193.405C203.06,192.197 201.181,192.122 201.125,193.33Z" style="fill:rgb(104,165,44);fill-rule:nonzero;"/>
            </g>
            <g transform="matrix(-1.24662,0.243038,-0.243038,-1.24662,1029.05,418.291)">
                <path d="M208.446,210.747C209.663,214.591 209.316,218.252 207.037,221.629C206.366,222.619 207.772,223.871 208.446,222.871C211.111,218.918 211.665,214.666 210.218,210.125C209.851,208.973 208.079,209.596 208.446,210.747Z" style="fill:rgb(104,165,44);fill-rule:nonzero;"/>
            </g>
            <g transform="matrix(-1.20921,0.388497,-0.388497,-1.20921,1022.18,360.182)">
                <path d="M198.05,202.142C198.812,205.359 198.271,208.515 196.479,211.28C195.817,212.296 197.387,213.325 198.05,212.309C200.112,209.127 200.758,205.417 199.883,201.733C199.598,200.56 197.765,200.969 198.05,202.142Z" style="fill:rgb(104,165,44);fill-rule:nonzero;"/>
            </g>
            <g transform="matrix(0.0920522,1.26675,-1.26675,0.0920522,965.949,-73.3238)">
                <path d="M202.788,213.044C200.241,216.91 199.493,221.127 200.946,225.554C201.315,226.684 203.165,226.337 202.788,225.186C201.492,221.222 202.027,217.581 204.335,214.099C205,213.095 203.453,212.03 202.788,213.044Z" style="fill:rgb(104,165,44);fill-rule:nonzero;"/>
            </g>
            <g transform="matrix(0.0263747,1.26982,-1.26982,0.0263747,954.125,-60.9171)">
                <path d="M192.752,203.064C190.685,206.242 190.058,209.96 190.932,213.639C191.207,214.815 193.027,214.352 192.752,213.176C191.988,209.96 192.554,206.811 194.352,204.038C195.013,203.031 193.413,202.048 192.752,203.064Z" style="fill:rgb(104,165,44);fill-rule:nonzero;"/>
            </g>
            <g transform="matrix(-0.903214,0.892935,-0.892935,-0.903214,1173.14,166.885)">
                <path d="M247.469,198.884C264.242,198.887 277.839,212.47 277.839,212.47C277.839,212.47 264.242,226.068 247.469,226.065C230.696,226.062 217.093,216.636 217.098,212.479C217.102,208.321 230.703,198.888 247.469,198.884Z" style="fill:rgb(149,193,39);fill-rule:nonzero;"/>
            </g>
            <g transform="matrix(-0.933385,-0.861348,0.861348,-0.933385,803.364,605.729)">
                <path d="M243.96,193.355C243.334,207.023 242.707,220.691 242.081,234.36C242.025,235.568 243.904,235.643 243.96,234.435C244.586,220.767 245.213,207.099 245.839,193.43C245.895,192.222 244.016,192.147 243.96,193.355Z" style="fill:rgb(104,165,44);fill-rule:nonzero;"/>
            </g>
            <g transform="matrix(-0.243039,-1.24662,1.24662,-0.243039,538.558,560.95)">
                <path d="M240.626,216.187C241.843,220.031 241.496,223.692 239.217,227.069C238.546,228.059 239.952,229.311 240.626,228.311C243.291,224.358 243.845,220.106 242.398,215.565C242.031,214.413 240.259,215.036 240.626,216.187Z" style="fill:rgb(104,165,44);fill-rule:nonzero;"/>
            </g>
            <g transform="matrix(-0.388498,-1.20921,1.20921,-0.388498,610.957,577.869)">
                <path d="M250.64,206.362C251.402,209.579 250.861,212.735 249.069,215.499C248.407,216.516 249.977,217.545 250.64,216.529C252.702,213.347 253.348,209.637 252.473,205.953C252.188,204.78 250.355,205.189 250.64,206.362Z" style="fill:rgb(104,165,44);fill-rule:nonzero;"/>
            </g>
            <g transform="matrix(-1.26675,0.0920512,-0.0920512,-1.26675,1074.84,447.381)">
                <path d="M239.198,208.564C236.651,212.43 235.903,216.647 237.356,221.074C237.725,222.204 239.575,221.857 239.198,220.706C237.902,216.742 238.437,213.101 240.745,209.619C241.41,208.615 239.863,207.55 239.198,208.564Z" style="fill:rgb(104,165,44);fill-rule:nonzero;"/>
            </g>
            <g transform="matrix(-1.26982,0.0263747,-0.0263747,-1.26982,1088.9,439.059)">
                <path d="M249.652,199.894C247.585,203.072 246.958,206.79 247.832,210.469C248.107,211.645 249.927,211.182 249.652,210.006C248.888,206.79 249.454,203.641 251.252,200.868C251.913,199.861 250.313,198.878 249.652,199.894Z" style="fill:rgb(104,165,44);fill-rule:nonzero;"/>
            </g>
            <g transform="matrix(1.27009,0,0,-1.27009,450.042,450.036)">
                <path d="M226.98,153.82L226.98,255.7C226.98,258.15 225,260.13 222.55,260.13C220.1,260.13 218.12,258.15 218.12,255.7L218.12,153.82L226.98,153.82Z" style="fill:rgb(178,204,23);fill-rule:nonzero;"/>
            </g>
            <g transform="matrix(1.27009,0,0,-1.27009,450.042,266.711)">
                <path d="M253.93,124.27C260.1,128.87 261.37,137.61 256.77,143.78C252.17,149.95 243.43,151.22 237.26,146.62C235.57,145.36 234.25,143.78 233.31,142.04L223.94,124.54L228.53,118.39L248.42,121.78L248.41,121.8C250.35,122.19 252.23,123.01 253.93,124.27Z" style="fill:rgb(239,128,140);fill-rule:nonzero;"/>
            </g>
            <g transform="matrix(-1.0353,-0.735714,0.735714,-1.0353,887.094,415.039)">
                <path d="M233.657,130.084C232.102,135.716 231.291,140.929 232.869,146.653C233.01,147.179 233.805,146.883 233.657,146.363C232.131,140.798 232.98,135.692 234.493,130.225C234.625,129.703 233.794,129.569 233.657,130.084Z" style="fill:rgb(231,37,87);fill-rule:nonzero;"/>
            </g>
            <g transform="matrix(-0.535666,-1.1516,1.1516,-0.535666,713.768,457.851)">
                <path d="M237.826,135.821C238.745,141.41 239.028,146.516 237.065,151.922C236.882,152.433 237.644,152.787 237.826,152.277C239.847,146.699 239.611,141.515 238.669,135.739C238.578,135.201 237.739,135.274 237.826,135.821Z" style="fill:rgb(231,37,87);fill-rule:nonzero;"/>
            </g>
            <g transform="matrix(1.27009,0,0,-1.27009,450.042,359.161)">
                <path d="M208.42,166.1C208.5,158.4 214.8,152.23 222.5,152.31C230.2,152.39 236.37,158.69 236.29,166.39C236.27,168.5 235.78,170.5 234.92,172.28L226.31,190.17L218.63,190.09L209.64,172.02L209.66,172.02C208.85,170.22 208.4,168.21 208.42,166.1Z" style="fill:rgb(239,128,140);fill-rule:nonzero;"/>
            </g>
            <g transform="matrix(1.20453,-0.402799,0.402799,1.20453,398.713,26.1252)">
                <path d="M226.031,155.833C224.482,161.473 223.661,166.671 225.202,172.405C225.344,172.927 226.17,172.761 226.031,172.229C224.518,166.63 225.317,161.594 226.828,156.099C226.98,155.581 226.174,155.311 226.031,155.833Z" style="fill:rgb(231,37,87);fill-rule:nonzero;"/>
            </g>
            <g transform="matrix(1.24622,0.245057,-0.245057,1.24622,495.538,-125.487)">
                <path d="M219.176,156.151C220.088,161.771 220.356,166.814 218.377,172.248C218.193,172.763 218.99,173.034 219.176,172.529C221.201,166.963 220.941,161.756 220.01,155.987C219.916,155.455 219.092,155.617 219.176,156.151Z" style="fill:rgb(231,37,87);fill-rule:nonzero;"/>
            </g>
            <g transform="matrix(1.27009,0,0,-1.27009,450.042,266.711)">
                <path d="M190.67,124.27C184.5,128.87 183.23,137.61 187.83,143.78C192.43,149.95 201.17,151.22 207.34,146.62C209.03,145.36 210.35,143.78 211.29,142.04L220.66,124.54L216.07,118.39L196.18,121.78L196.19,121.8C194.25,122.19 192.36,123.01 190.67,124.27Z" style="fill:rgb(239,128,140);fill-rule:nonzero;"/>
            </g>
            <g transform="matrix(-0.957887,0.834015,-0.834015,-0.957887,1035.23,56.5192)">
                <path d="M210.906,130.192C211.866,135.775 212.209,140.939 210.151,146.334C209.952,146.837 210.714,147.209 210.906,146.7C213.032,141.152 212.739,135.899 211.753,130.134C211.653,129.609 210.813,129.66 210.906,130.192Z" style="fill:rgb(231,37,87);fill-rule:nonzero;"/>
            </g>
            <g transform="matrix(-0.419401,1.19885,-1.19885,-0.419401,971.888,-80.6345)">
                <path d="M206.724,135.691C205.208,141.349 204.458,146.474 205.931,152.231C206.063,152.757 206.865,152.476 206.724,151.953C205.304,146.38 206.086,141.317 207.555,135.856C207.696,135.319 206.868,135.164 206.724,135.691Z" style="fill:rgb(231,37,87);fill-rule:nonzero;"/>
            </g>
            <g transform="matrix(1.27009,0,0,-1.27009,450.042,245.933)">
                <path d="M236.24,131.59C236.24,139.29 230,145.53 222.3,145.53C214.6,145.53 208.36,139.29 208.36,131.59C208.36,129.48 208.83,127.48 209.67,125.69L218.09,107.72L225.77,107.72L234.94,125.69L234.92,125.69C235.76,127.48 236.24,129.48 236.24,131.59Z" style="fill:rgb(235,91,96);fill-rule:nonzero;"/>
            </g>
            <g transform="matrix(-1.20851,0.39069,-0.39069,-1.20851,1043.59,169.94)">
                <path d="M218.338,125.148C216.789,130.785 215.96,135.982 217.511,141.717C217.648,142.234 218.482,142.062 218.338,141.532C216.826,135.936 217.634,130.9 219.149,125.4C219.284,124.886 218.488,124.618 218.338,125.148Z" style="fill:rgb(231,37,87);fill-rule:nonzero;"/>
            </g>
            <g transform="matrix(-1.2437,-0.257584,0.257584,-1.2437,982.344,318.004)">
                <path d="M225.517,125.364C226.426,130.986 226.684,136.029 224.715,141.461C224.524,141.97 225.326,142.243 225.517,141.734C227.54,136.168 227.288,130.961 226.351,125.201C226.259,124.659 225.427,124.831 225.517,125.364Z" style="fill:rgb(231,37,87);fill-rule:nonzero;"/>
            </g>
            <g transform="matrix(1.27009,0,0,-1.27009,450.042,339.284)">
                <path d="M240.1,151.66C247.01,148.27 255.36,151.12 258.76,158.03C262.16,164.94 259.3,173.29 252.39,176.69C250.49,177.62 248.49,178.08 246.51,178.12L226.66,178.48L223.28,171.59L235.37,155.43L235.38,155.45C236.62,153.9 238.21,152.59 240.1,151.66Z" style="fill:rgb(235,91,96);fill-rule:nonzero;"/>
            </g>
            <g transform="matrix(0.182969,-1.25684,1.25684,0.182969,513.993,389.925)">
                <path d="M237.398,145.911C235.846,151.564 235.023,156.736 236.567,162.484C236.703,163 237.545,162.887 237.398,162.363C235.894,156.751 236.663,151.758 238.183,146.232C238.32,145.716 237.545,145.395 237.398,145.911Z" style="fill:rgb(231,37,87);fill-rule:nonzero;"/>
            </g>
            <g transform="matrix(0.77976,-1.00255,1.00255,0.77976,404.397,237.536)">
                <path d="M234.194,151.956C235.112,157.551 235.395,162.639 233.406,168.063C233.221,168.574 234.001,168.892 234.194,168.375C236.235,162.822 235.975,157.602 235.034,151.848C234.945,151.309 234.104,151.418 234.194,151.956Z" style="fill:rgb(231,37,87);fill-rule:nonzero;"/>
            </g>
            <g transform="matrix(1.27009,0,0,-1.27009,450.042,340.224)">
                <path d="M204.49,152.03C197.58,148.64 189.23,151.49 185.83,158.4C182.44,165.31 185.29,173.66 192.2,177.06C194.1,177.99 196.1,178.45 198.08,178.49L217.93,178.85L221.31,171.96L209.22,155.8L209.21,155.82C207.97,154.27 206.39,152.96 204.49,152.03Z" style="fill:rgb(235,91,96);fill-rule:nonzero;"/>
            </g>
            <g transform="matrix(0.306395,1.23258,-1.23258,0.306395,840.531,-182.497)">
                <path d="M207.21,146.545C208.176,152.195 208.449,157.23 206.395,162.675C206.206,163.184 207.024,163.377 207.21,162.878C209.315,157.311 209.007,152.082 208.022,146.304C207.929,145.766 207.117,146.007 207.21,146.545Z" style="fill:rgb(231,37,87);fill-rule:nonzero;"/>
            </g>
            <g transform="matrix(0.876002,0.919647,-0.919647,0.876002,680.515,-206.002)">
                <path d="M210.389,152.179C208.878,157.811 208.098,162.979 209.574,168.708C209.707,169.235 210.522,169.003 210.389,168.476C208.945,162.888 209.742,157.846 211.214,152.371C211.35,151.852 210.532,151.652 210.389,152.179Z" style="fill:rgb(231,37,87);fill-rule:nonzero;"/>
            </g>
            <g transform="matrix(1.27009,0,0,-1.27009,450.042,303.785)">
                <path d="M230.36,149.4C230.36,148.871 230.308,148.347 230.205,147.828C230.102,147.309 229.949,146.805 229.746,146.316C229.544,145.827 229.296,145.362 229.002,144.922C228.708,144.482 228.373,144.075 227.999,143.701C227.625,143.327 227.218,142.992 226.778,142.698C226.338,142.404 225.873,142.156 225.384,141.954C224.895,141.751 224.391,141.598 223.872,141.495C223.353,141.392 222.829,141.34 222.3,141.34C221.771,141.34 221.247,141.392 220.728,141.495C220.209,141.598 219.704,141.751 219.216,141.954C218.727,142.156 218.262,142.404 217.822,142.698C217.382,142.992 216.975,143.327 216.601,143.701C216.226,144.075 215.892,144.482 215.598,144.922C215.304,145.362 215.056,145.827 214.854,146.316C214.651,146.805 214.498,147.309 214.395,147.828C214.292,148.347 214.24,148.871 214.24,149.4C214.24,149.929 214.292,150.453 214.395,150.972C214.498,151.491 214.651,151.995 214.854,152.484C215.056,152.973 215.304,153.438 215.598,153.878C215.892,154.318 216.226,154.725 216.601,155.099C216.975,155.474 217.382,155.808 217.822,156.102C218.262,156.396 218.727,156.644 219.216,156.846C219.704,157.049 220.208,157.202 220.728,157.305C221.247,157.408 221.771,157.46 222.3,157.46C222.829,157.46 223.353,157.408 223.872,157.305C224.391,157.202 224.895,157.049 225.384,156.846C225.873,156.644 226.338,156.396 226.778,156.102C227.218,155.808 227.625,155.474 227.999,155.099C228.373,154.725 228.708,154.318 229.002,153.878C229.296,153.438 229.544,152.973 229.746,152.484C229.949,151.995 230.102,151.491 230.205,150.972C230.308,150.453 230.36,149.929 230.36,149.4Z" style="fill:rgb(255,217,29);fill-rule:nonzero;"/>
            </g>
            <g transform="matrix(1.27009,0,0,-1.27009,450.042,598.916)">
                <path d="M270.64,271.92C270.28,271.92 269.93,271.89 269.58,271.85C267.36,276.22 262.83,279.21 257.6,279.21C256.32,279.21 255.09,279.02 253.92,278.69C251.9,283.56 247.1,286.99 241.5,286.99C238.61,286.99 235.95,286.07 233.75,284.52C230.55,286.91 226.59,288.34 222.28,288.34C222,288.34 221.74,288.31 221.46,288.3C221.19,288.31 220.92,288.34 220.64,288.34C216.33,288.34 212.37,286.91 209.17,284.52C206.98,286.07 204.31,286.99 201.42,286.99C195.82,286.99 191.02,283.56 189,278.69C187.83,279.02 186.6,279.21 185.32,279.21C180.08,279.21 175.56,276.21 173.34,271.85C172.99,271.89 172.64,271.92 172.28,271.92C167.55,271.92 163.72,268.09 163.72,263.36C163.72,258.63 167.55,254.8 172.28,254.8C173.73,254.8 175.1,255.16 176.3,255.8C178.69,253.63 181.85,252.3 185.32,252.3C186.94,252.3 188.48,252.6 189.92,253.12C192.28,249.23 196.54,246.62 201.42,246.62C204.06,246.62 206.51,247.39 208.58,248.71C211.39,245.14 215.74,242.83 220.64,242.83C225.88,242.83 230.5,245.46 233.27,249.47C235.54,247.7 238.39,246.63 241.5,246.63C246.38,246.63 250.64,249.24 253,253.13C254.44,252.61 255.98,252.31 257.6,252.31C261.08,252.31 264.24,253.64 266.62,255.81C267.82,255.17 269.19,254.81 270.64,254.81C275.37,254.81 279.2,258.64 279.2,263.37C279.2,268.09 275.36,271.92 270.64,271.92Z" style="fill:rgb(220,125,63);fill-rule:nonzero;"/>
            </g>
            <g transform="matrix(1.27009,0,0,-1.27009,450.042,598.472)">
                <path d="M201.77,265.41C201.77,265.13 201.743,264.853 201.688,264.579C201.634,264.305 201.553,264.038 201.446,263.78C201.339,263.521 201.207,263.276 201.052,263.043C200.897,262.811 200.72,262.596 200.522,262.398C200.324,262.2 200.109,262.023 199.877,261.868C199.644,261.713 199.399,261.581 199.14,261.474C198.882,261.367 198.615,261.286 198.341,261.232C198.067,261.177 197.79,261.15 197.51,261.15C197.23,261.15 196.953,261.177 196.679,261.232C196.405,261.286 196.138,261.367 195.88,261.474C195.621,261.581 195.376,261.713 195.143,261.868C194.911,262.023 194.695,262.2 194.498,262.398C194.3,262.596 194.123,262.811 193.968,263.043C193.813,263.276 193.681,263.521 193.574,263.78C193.467,264.038 193.386,264.305 193.332,264.579C193.277,264.853 193.25,265.13 193.25,265.41C193.25,265.69 193.277,265.967 193.332,266.241C193.386,266.515 193.467,266.782 193.574,267.04C193.681,267.299 193.813,267.544 193.968,267.777C194.123,268.009 194.3,268.224 194.498,268.422C194.695,268.62 194.911,268.797 195.143,268.952C195.376,269.107 195.621,269.239 195.88,269.346C196.138,269.453 196.405,269.534 196.679,269.588C196.953,269.643 197.23,269.67 197.51,269.67C197.79,269.67 198.067,269.643 198.341,269.588C198.615,269.534 198.882,269.453 199.14,269.346C199.399,269.239 199.644,269.107 199.877,268.952C200.109,268.797 200.324,268.62 200.522,268.422C200.72,268.224 200.897,268.009 201.052,267.777C201.207,267.544 201.339,267.299 201.446,267.04C201.553,266.782 201.634,266.515 201.688,266.241C201.743,265.967 201.77,265.69 201.77,265.41Z" style="fill:rgb(168,98,48);fill-rule:nonzero;"/>
            </g>
            <g transform="matrix(1.27009,0,0,-1.27009,450.042,571.546)">
                <path d="M199.34,254.81C199.34,254.489 199.279,254.18 199.156,253.884C199.033,253.587 198.858,253.326 198.631,253.099C198.404,252.872 198.143,252.697 197.846,252.574C197.55,252.451 197.241,252.39 196.92,252.39C196.599,252.39 196.29,252.451 195.994,252.574C195.697,252.697 195.436,252.872 195.209,253.099C194.982,253.326 194.807,253.587 194.684,253.884C194.561,254.18 194.5,254.489 194.5,254.81C194.5,255.131 194.561,255.44 194.684,255.736C194.807,256.033 194.982,256.294 195.209,256.521C195.436,256.748 195.697,256.923 195.994,257.046C196.29,257.169 196.599,257.23 196.92,257.23C197.241,257.23 197.55,257.169 197.846,257.046C198.143,256.923 198.404,256.748 198.631,256.521C198.858,256.294 199.033,256.033 199.156,255.736C199.279,255.44 199.34,255.131 199.34,254.81Z" style="fill:rgb(168,98,48);fill-rule:nonzero;"/>
            </g>
            <g transform="matrix(1.27009,0,0,-1.27009,450.042,591.257)">
                <path d="M189.72,262.57C189.72,262.249 189.659,261.94 189.536,261.644C189.413,261.347 189.238,261.086 189.011,260.859C188.784,260.632 188.523,260.457 188.226,260.334C187.93,260.211 187.621,260.15 187.3,260.15C186.979,260.15 186.67,260.211 186.374,260.334C186.077,260.457 185.816,260.632 185.589,260.859C185.362,261.086 185.187,261.347 185.064,261.644C184.941,261.94 184.88,262.249 184.88,262.57C184.88,262.891 184.941,263.2 185.064,263.496C185.187,263.793 185.362,264.054 185.589,264.281C185.816,264.508 186.077,264.683 186.374,264.806C186.67,264.929 186.979,264.99 187.3,264.99C187.621,264.99 187.93,264.929 188.226,264.806C188.523,264.683 188.784,264.508 189.011,264.281C189.238,264.054 189.413,263.793 189.536,263.496C189.659,263.2 189.72,262.891 189.72,262.57Z" style="fill:rgb(168,98,48);fill-rule:nonzero;"/>
            </g>
            <g transform="matrix(1.27009,0,0,-1.27009,450.042,598.776)">
                <path d="M249.72,265.53C249.72,265.25 249.693,264.973 249.638,264.699C249.584,264.425 249.503,264.158 249.396,263.9C249.289,263.641 249.157,263.396 249.002,263.163C248.847,262.931 248.67,262.716 248.472,262.518C248.274,262.32 248.059,262.143 247.827,261.988C247.594,261.833 247.349,261.701 247.09,261.594C246.832,261.487 246.565,261.406 246.291,261.352C246.017,261.297 245.74,261.27 245.46,261.27C245.18,261.27 244.903,261.297 244.629,261.352C244.355,261.406 244.088,261.487 243.83,261.594C243.571,261.701 243.326,261.833 243.093,261.988C242.861,262.143 242.645,262.32 242.448,262.518C242.25,262.716 242.073,262.931 241.918,263.163C241.763,263.396 241.631,263.641 241.524,263.9C241.417,264.158 241.336,264.425 241.282,264.699C241.227,264.973 241.2,265.25 241.2,265.53C241.2,265.81 241.227,266.087 241.282,266.361C241.336,266.635 241.417,266.902 241.524,267.16C241.631,267.419 241.763,267.664 241.918,267.897C242.073,268.129 242.25,268.344 242.448,268.542C242.645,268.74 242.861,268.917 243.093,269.072C243.326,269.227 243.571,269.359 243.83,269.466C244.088,269.573 244.355,269.654 244.629,269.708C244.903,269.763 245.18,269.79 245.46,269.79C245.74,269.79 246.017,269.763 246.291,269.708C246.565,269.654 246.832,269.573 247.09,269.466C247.349,269.359 247.594,269.227 247.827,269.072C248.059,268.917 248.274,268.74 248.472,268.542C248.67,268.344 248.847,268.129 249.002,267.897C249.157,267.664 249.289,267.419 249.396,267.16C249.503,266.902 249.584,266.635 249.638,266.361C249.693,266.087 249.72,265.81 249.72,265.53Z" style="fill:rgb(168,98,48);fill-rule:nonzero;"/>
            </g>
            <g transform="matrix(1.27009,0,0,-1.27009,450.042,571.876)">
                <path d="M248.46,254.94C248.46,254.619 248.399,254.31 248.276,254.014C248.153,253.717 247.978,253.456 247.751,253.229C247.524,253.002 247.263,252.827 246.966,252.704C246.67,252.581 246.361,252.52 246.04,252.52C245.719,252.52 245.41,252.581 245.114,252.704C244.817,252.827 244.556,253.002 244.329,253.229C244.102,253.456 243.927,253.717 243.804,254.014C243.681,254.31 243.62,254.619 243.62,254.94C243.62,255.261 243.681,255.57 243.804,255.866C243.927,256.163 244.102,256.424 244.329,256.651C244.556,256.878 244.817,257.053 245.114,257.176C245.41,257.299 245.719,257.36 246.04,257.36C246.361,257.36 246.67,257.299 246.966,257.176C247.263,257.053 247.524,256.878 247.751,256.651C247.978,256.424 248.153,256.163 248.276,255.866C248.399,255.57 248.46,255.261 248.46,254.94Z" style="fill:rgb(168,98,48);fill-rule:nonzero;"/>
            </g>
            <g transform="matrix(1.27009,0,0,-1.27009,450.042,591.588)">
                <path d="M258.08,262.7C258.08,262.379 258.019,262.07 257.896,261.774C257.773,261.477 257.598,261.216 257.371,260.989C257.144,260.762 256.883,260.587 256.586,260.464C256.29,260.341 255.981,260.28 255.66,260.28C255.339,260.28 255.03,260.341 254.734,260.464C254.437,260.587 254.176,260.762 253.949,260.989C253.722,261.216 253.547,261.477 253.424,261.774C253.301,262.07 253.24,262.379 253.24,262.7C253.24,263.021 253.301,263.33 253.424,263.626C253.547,263.923 253.722,264.184 253.949,264.411C254.176,264.638 254.437,264.813 254.734,264.936C255.03,265.059 255.339,265.12 255.66,265.12C255.981,265.12 256.29,265.059 256.586,264.936C256.883,264.813 257.144,264.638 257.371,264.411C257.598,264.184 257.773,263.923 257.896,263.626C258.019,263.33 258.08,263.021 258.08,262.7Z" style="fill:rgb(168,98,48);fill-rule:nonzero;"/>
            </g>
            <g transform="matrix(1.27009,0,0,-1.27009,450.042,634.06)">
                <path d="M280.45,297.56L279.85,298.18C277.33,300.78 273.15,300.85 270.55,298.33L244.09,276.92L205.24,276.9C203.58,276.9 202.23,278.24 202.23,279.9C202.23,284.24 205.71,287.78 210.05,287.86L227.97,288.19C231.57,288.19 234.79,290.76 235.26,294.32C235.83,298.64 232.45,302.36 228.24,302.36L205.11,302.36C201.56,302.36 189.78,304.12 177.1,302.5C170.17,301.62 157.84,296.27 149.51,289.39L149.51,257.24L200.43,254.72L240.47,254.72C243.33,254.72 245.97,255.69 248.1,257.3C248.51,257.55 248.91,257.84 249.27,258.19L280.31,288.24C282.9,290.77 282.97,294.95 280.45,297.56Z" style="fill:rgb(254,212,130);fill-rule:nonzero;"/>
            </g>
            <g transform="matrix(1.27009,0,0,-1.27009,450.042,640.016)">
                <path d="M156.37,257.35L147.67,257.35C145.05,257.35 142.9,259.49 142.9,262.12L142.9,301.41C142.9,304.03 145.04,306.18 147.67,306.18L156.37,306.18C158.99,306.18 161.14,304.04 161.14,301.41L161.14,262.12C161.14,259.5 158.99,257.35 156.37,257.35Z" style="fill:rgb(235,91,96);fill-rule:nonzero;"/>
            </g>
        </g>
    </g>
</svg>
