<?xml version="1.0" encoding="UTF-8" standalone="no"?>
<!DOCTYPE svg PUBLIC "-//W3C//DTD SVG 1.1//EN" "http://www.w3.org/Graphics/SVG/1.1/DTD/svg11.dtd">
<svg width="100%" height="100%" viewBox="0 0 800 600" version="1.1" xmlns="http://www.w3.org/2000/svg" xmlns:xlink="http://www.w3.org/1999/xlink" xml:space="preserve" xmlns:serif="http://www.serif.com/" style="fill-rule:evenodd;clip-rule:evenodd;stroke-linejoin:round;stroke-miterlimit:2;">
    <g transform="matrix(1.85185,0,0,1.85185,-933.333,-811.27)">
        <g transform="matrix(0.648,0,0,-0.648,558,762.086)">
            <path d="M250,500C111.929,500 0,388.071 0,250C0,111.929 111.929,0 250,0C388.071,0 500,111.929 500,250C500,388.071 388.071,500 250,500" style="fill:rgb(41,207,127);fill-rule:nonzero;"/>
        </g>
        <g transform="matrix(1.82143,0,0,-1.81721,605.4,636.747)">
            <path d="M32.213,49.786C29.313,51.192 26.165,51.43 23.355,50.453C16.714,48.136 13.581,39.732 16.369,31.721C17.874,27.38 20.878,23.855 24.611,22.05C26.331,21.218 28.135,20.798 29.904,20.798C31.117,20.798 32.313,20.996 33.454,21.394C40.092,23.712 43.225,32.111 40.438,40.117C38.935,44.455 35.937,47.979 32.213,49.786ZM32.793,23.282C30.464,22.466 27.934,22.664 25.481,23.85C22.223,25.425 19.59,28.533 18.258,32.376C15.832,39.347 18.413,46.609 24.012,48.563C24.955,48.891 25.93,49.054 26.918,49.054C28.382,49.054 29.875,48.697 31.34,47.986C34.591,46.41 37.219,43.302 38.548,39.461C38.549,39.461 38.549,39.46 38.549,39.46C40.973,32.494 38.391,25.236 32.793,23.282Z" style="fill-rule:nonzero;"/>
        </g>
        <g transform="matrix(1.82143,0,0,-1.81721,605.4,636.98)">
            <path d="M36.747,38.955C35.629,42.165 33.444,44.75 30.755,46.047C28.781,46.999 26.657,47.159 24.776,46.501C20.175,44.903 18.059,38.909 20.059,33.137C21.73,28.345 25.733,25.197 29.682,25.197C30.478,25.197 31.272,25.325 32.044,25.593C36.634,27.202 38.744,33.196 36.747,38.954L36.747,38.955ZM27.307,39.18C27.376,39.204 27.451,39.215 27.53,39.215C28.266,39.215 29.361,38.193 29.928,36.575C30.33,35.415 30.355,34.183 29.991,33.436C29.857,33.162 29.691,32.988 29.489,32.918C29.296,32.85 29.054,32.88 28.779,33.014C28.031,33.374 27.289,34.355 26.885,35.517C26.268,37.278 26.61,38.934 27.307,39.18Z" style="fill-rule:nonzero;"/>
        </g>
        <g transform="matrix(1.82143,0,0,-1.81721,605.4,694.482)">
            <path d="M124.993,45.149L102.802,45.149C102.402,45.149 102.04,44.911 101.883,44.543L98.293,36.163L82.922,39.715L82.922,42.338C88.923,43.94 93.362,49.413 93.362,55.92C93.362,56.404 93.329,56.885 93.281,57.363L108.287,61.496C108.596,61.581 108.845,61.808 108.958,62.107C109.959,64.755 110.421,67.526 110.331,70.343C110.26,72.573 109.829,74.762 109.071,76.863C110.031,80.023 111.176,86.034 108.973,92.848C107.305,98.017 104.368,101.613 102.198,103.719C102.193,103.724 102.185,103.726 102.179,103.731C102.093,103.811 101.994,103.874 101.885,103.92C101.877,103.923 101.87,103.931 101.862,103.934C101.751,103.975 101.629,103.999 101.503,103.999L63.643,103.999C63.561,103.999 63.48,103.989 63.4,103.969L0.75,88.279C0.728,88.273 0.711,88.258 0.689,88.251C0.67,88.245 0.65,88.248 0.631,88.241C0.596,88.228 0.573,88.2 0.541,88.183C0.475,88.149 0.414,88.113 0.358,88.066C0.315,88.03 0.279,87.992 0.244,87.951C0.199,87.899 0.161,87.844 0.128,87.784C0.101,87.735 0.079,87.688 0.061,87.636C0.039,87.572 0.026,87.508 0.017,87.44C0.009,87.382 0.004,87.326 0.007,87.266C0.008,87.239 -0.001,87.214 0.002,87.187C0.008,87.141 0.031,87.103 0.042,87.059C0.052,87.022 0.047,86.984 0.061,86.948L9.201,63.408C9.203,63.404 9.206,63.401 9.208,63.396C9.209,63.393 9.209,63.389 9.21,63.386L15.731,47.696C15.886,47.323 16.251,47.08 16.655,47.08L54.815,47.08L54.815,33.69C54.815,33.682 54.819,33.676 54.819,33.669C54.822,33.545 54.845,33.423 54.892,33.309C54.916,33.25 54.96,33.204 54.995,33.151C55.031,33.096 55.058,33.037 55.104,32.989C55.184,32.908 55.281,32.847 55.384,32.797C55.399,32.79 55.409,32.776 55.424,32.769L55.426,32.768L98.208,14.58L107.182,0.463C107.366,0.174 107.684,0 108.026,0L125.001,0C125.248,0.001 125.475,0.092 125.648,0.242C125.69,0.278 125.729,0.318 125.765,0.361C125.909,0.534 125.995,0.757 125.995,1L125.995,44.149C125.993,44.701 125.546,45.149 124.993,45.149ZM103.462,43.149L118.429,43.149L115.164,32.264L100.272,35.705L103.462,43.149ZM80.923,41.849L80.923,38.919C80.923,38.454 81.244,38.049 81.697,37.945L114.853,30.284L114.853,16.857L71.173,34.365L71.173,41.849L80.923,41.849ZM99.087,16.379L60.722,32.689L69.98,32.689L110.671,16.379L99.087,16.379L99.087,16.379ZM99.796,73.561C100.275,72.118 100.689,70.125 100.506,67.769C100.258,64.653 99.07,62.274 98.044,60.748L86.807,57.653C86.771,57.641 86.733,57.639 86.699,57.623L57.345,49.538C57.931,51.627 58.193,53.777 58.122,55.952C58.057,57.986 57.689,59.973 57.061,61.882C64.163,63.82 71.265,65.763 78.367,67.705C85.509,69.658 92.651,71.611 99.796,73.561ZM86.116,55.388C85.844,51.864 82.9,49.079 79.313,49.079C77.081,49.079 75.009,50.192 73.74,51.979L86.116,55.388ZM72.061,43.849L67.253,43.849L67.253,48.687C68.451,46.672 70.106,45.023 72.061,43.849ZM65.253,49.642L65.253,43.849L56.814,43.849L56.814,47.317L65.253,49.642ZM56.813,41.849L69.172,41.849L69.172,34.689L56.813,34.689L56.813,41.849ZM91.363,55.919C91.363,49.264 85.958,43.849 79.313,43.849C74.667,43.849 70.544,46.444 68.519,50.541L71.728,51.425C73.308,48.767 76.189,47.079 79.314,47.079C84.183,47.079 88.144,51.044 88.144,55.919C88.144,55.928 88.143,55.937 88.143,55.946L91.327,56.823C91.348,56.523 91.363,56.222 91.363,55.919ZM107.261,63.286L100.793,61.504C101.596,63.112 102.305,65.159 102.5,67.611C102.703,70.233 102.256,72.458 101.727,74.089C103.48,74.572 105.236,75.052 106.989,75.53L107.375,75.635C107.942,73.9 108.275,72.104 108.334,70.276C108.409,67.893 108.049,65.543 107.261,63.286ZM107.228,77.669L106.462,77.461C104.36,76.888 102.255,76.315 100.158,75.734C92.719,73.704 85.278,71.669 77.838,69.633C70.399,67.598 62.959,65.563 55.521,63.533L51.377,62.4C50.558,66.598 49.286,70.705 47.59,74.625C45.744,78.901 43.38,82.957 40.562,86.708L101.191,101.889C103.15,99.902 105.624,96.714 107.072,92.23C109.054,86.095 108.101,80.65 107.228,77.669ZM63.766,101.999L93.392,101.999L38.72,88.309L9.102,88.309L63.766,101.999ZM17.32,49.079L11.132,63.969L11.132,86.309L38.348,86.309C41.345,82.463 43.838,78.27 45.754,73.832C47.533,69.72 48.829,65.394 49.607,60.976C49.656,60.699 49.819,60.455 50.056,60.305C50.218,60.202 50.404,60.149 50.592,60.149C50.68,60.149 50.768,60.161 50.855,60.184L55.129,61.353C55.718,59.596 56.063,57.764 56.123,55.887C56.197,53.568 55.835,51.284 55.086,49.079L17.32,49.079ZM108.572,1.999L100.703,14.379L115.305,14.379L123.173,1.999L108.572,1.999ZM123.993,4.436L116.853,15.669L116.853,30.933L120.517,43.149L123.993,43.149L123.993,4.436Z" style="fill-rule:nonzero;"/>
        </g>
    </g>
</svg>
