<?xml version="1.0" encoding="UTF-8" standalone="no"?>
<!DOCTYPE svg PUBLIC "-//W3C//DTD SVG 1.1//EN" "http://www.w3.org/Graphics/SVG/1.1/DTD/svg11.dtd">
<svg width="100%" height="100%" viewBox="0 0 800 600" version="1.1" xmlns="http://www.w3.org/2000/svg" xmlns:xlink="http://www.w3.org/1999/xlink" xml:space="preserve" xmlns:serif="http://www.serif.com/" style="fill-rule:evenodd;clip-rule:evenodd;stroke-linejoin:round;stroke-miterlimit:2;">
    <g transform="matrix(1.85185,0,0,1.85185,-933.333,-811.27)">
        <g transform="matrix(0.648,0,0,-0.648,558,762.086)">
            <path d="M250,500C111.929,500 0,388.071 0,250C0,111.929 111.929,0 250,0C388.071,0 500,111.929 500,250C500,388.071 388.071,500 250,500" style="fill:rgb(255,236,164);fill-rule:nonzero;"/>
        </g>
        <g transform="matrix(1.88057,0,0,-1.8841,626.184,875.843)">
            <path d="M97.208,109.693C97.208,109.693 95.158,105.053 95.338,102.043C95.378,101.343 95.548,100.733 95.768,100.203C96.538,98.443 99.228,98.603 99.778,100.443C99.938,100.993 100.028,101.623 99.988,102.323C99.808,105.323 97.208,109.693 97.208,109.693Z" style="fill:rgb(30,166,188);fill-rule:nonzero;"/>
        </g>
        <g transform="matrix(1.88057,0,0,-1.8841,626.184,919.46)">
            <path d="M94.709,115.643C94.709,115.386 94.659,115.139 94.56,114.901C94.461,114.664 94.32,114.454 94.138,114.273C93.955,114.091 93.744,113.951 93.505,113.853C93.266,113.754 93.017,113.705 92.758,113.705C92.499,113.705 92.25,113.754 92.011,113.853C91.772,113.951 91.561,114.091 91.378,114.273C91.195,114.454 91.055,114.664 90.956,114.901C90.856,115.139 90.807,115.386 90.807,115.643C90.807,115.9 90.856,116.147 90.956,116.385C91.055,116.622 91.195,116.832 91.378,117.013C91.561,117.195 91.772,117.335 92.011,117.433C92.25,117.532 92.499,117.581 92.758,117.581C93.017,117.581 93.266,117.532 93.505,117.433C93.744,117.335 93.955,117.195 94.138,117.013C94.321,116.832 94.461,116.622 94.56,116.385C94.659,116.147 94.709,115.9 94.709,115.643Z" style="fill:rgb(30,166,188);fill-rule:nonzero;"/>
        </g>
        <g transform="matrix(1.88057,0,0,-1.8841,626.184,832.376)">
            <path d="M91.428,90.243C91.178,94.203 87.738,99.963 87.738,99.963C87.738,99.963 85.038,93.823 85.288,89.863C85.348,88.933 85.568,88.133 85.868,87.433C86.888,85.103 90.448,85.323 91.158,87.763C91.368,88.484 91.488,89.313 91.428,90.243Z" style="fill:rgb(30,166,188);fill-rule:nonzero;"/>
        </g>
        <g transform="matrix(1.88057,0,0,-1.8841,626.184,805.189)">
            <path d="M96.808,81.753C98.248,80.713 100.308,82.093 99.858,83.803C99.728,84.313 99.498,84.853 99.138,85.383C97.568,87.673 93.438,89.923 93.438,89.923C93.438,89.923 94.018,85.303 95.588,83.013C95.958,82.474 96.378,82.063 96.808,81.753Z" style="fill:rgb(30,166,188);fill-rule:nonzero;"/>
        </g>
        <g transform="matrix(1.88057,0,0,-1.8841,626.184,642.568)">
            <path d="M64.448,7.602C68.418,4.842 71.068,1.742 72.738,-0.588C74.708,-0.298 77.728,0.372 81.018,2.142C84.358,3.932 86.608,6.112 87.928,7.602L49.258,26.722L74.648,51.832C77.018,54.182 77.018,57.992 74.648,60.342L52.188,82.562C49.808,84.912 45.948,84.912 43.578,82.562L1.778,41.222C-0.592,38.872 -0.592,35.062 1.778,32.712L25.688,9.062C27.418,7.352 30.018,6.832 32.288,7.752C34.448,8.612 36.608,9.482 38.758,10.352C47.168,13.742 56.788,12.862 64.248,7.742C64.318,7.701 64.378,7.651 64.448,7.602ZM40.048,73.612L43.338,76.862C45.088,78.592 47.918,78.592 49.658,76.862L66.118,60.582C66.998,59.722 67.428,58.582 67.428,57.452C67.428,56.322 66.998,55.182 66.118,54.322C65.728,53.942 65.278,53.642 64.798,53.422L40.048,73.612Z" style="fill:rgb(30,166,188);fill-rule:nonzero;"/>
        </g>
        <g transform="matrix(1.88057,0,0,-1.8841,626.184,891.816)">
            <path d="M81.888,106.782C81.798,106.082 81.848,105.452 81.968,104.892C82.388,103.012 85.068,102.672 85.948,104.382C86.218,104.892 86.418,105.492 86.508,106.192C86.898,109.182 85.168,113.942 85.168,113.942C85.168,113.942 82.278,109.762 81.888,106.782Z" style="fill:rgb(30,166,188);fill-rule:nonzero;"/>
        </g>
        <g transform="matrix(1.3233,-1.33871,1.33621,1.32578,509.902,660.698)">
            <path d="M81.709,118.186C80.097,118.178 78.797,119.466 78.796,121.071C78.803,122.683 80.104,123.998 81.709,124.013C83.322,124.035 84.622,122.747 84.623,121.128C84.623,119.523 83.321,118.207 81.709,118.186Z" style="fill:rgb(30,166,188);fill-rule:nonzero;"/>
        </g>
        <g transform="matrix(1.88057,0,0,-1.8841,626.184,908.114)">
            <path d="M71.798,111.222C71.718,110.582 71.758,110.002 71.868,109.492C72.258,107.762 74.718,107.452 75.528,109.022C75.778,109.492 75.968,110.052 76.048,110.692C76.398,113.432 74.808,117.812 74.808,117.812C74.808,117.812 72.148,113.972 71.798,111.222Z" style="fill:rgb(30,166,188);fill-rule:nonzero;"/>
        </g>
        <g transform="matrix(1.88057,0,0,-1.8841,626.184,847.92)">
            <path d="M74.758,93.513C76.208,97.213 75.518,103.863 75.518,103.863C75.518,103.863 70.468,99.413 69.018,95.713C68.678,94.843 68.538,94.023 68.518,93.263C68.448,90.733 71.778,89.453 73.458,91.373C73.958,91.943 74.417,92.643 74.758,93.513Z" style="fill:rgb(30,166,188);fill-rule:nonzero;"/>
        </g>
        <g transform="matrix(1.32492,-1.3371,1.33459,1.32741,514.04,631.59)">
            <ellipse cx="64.451" cy="110.863" rx="1.946" ry="1.952" style="fill:rgb(30,166,188);"/>
        </g>
        <g transform="matrix(1.88057,0,0,-1.8841,626.184,875.843)">
            <path d="M99.988,102.323C100.028,101.623 99.938,100.993 99.778,100.443C99.228,98.603 96.538,98.443 95.768,100.203C95.548,100.733 95.378,101.343 95.338,102.043C95.158,105.053 97.208,109.693 97.208,109.693C97.208,109.693 99.808,105.323 99.988,102.323Z" style="fill:rgb(231,242,241);fill-rule:nonzero;"/>
        </g>
        <g transform="matrix(1.88057,0,0,-1.8841,626.184,919.46)">
            <path d="M94.709,115.643C94.709,115.386 94.659,115.139 94.56,114.901C94.461,114.664 94.32,114.454 94.138,114.273C93.955,114.091 93.744,113.951 93.505,113.853C93.266,113.754 93.017,113.705 92.758,113.705C92.499,113.705 92.25,113.754 92.011,113.853C91.772,113.951 91.561,114.091 91.378,114.273C91.195,114.454 91.055,114.664 90.956,114.901C90.856,115.139 90.807,115.386 90.807,115.643C90.807,115.9 90.856,116.147 90.956,116.385C91.055,116.622 91.195,116.832 91.378,117.013C91.561,117.195 91.772,117.335 92.011,117.433C92.25,117.532 92.499,117.581 92.758,117.581C93.017,117.581 93.266,117.532 93.505,117.433C93.744,117.335 93.955,117.195 94.138,117.013C94.321,116.832 94.461,116.622 94.56,116.385C94.659,116.147 94.709,115.9 94.709,115.643Z" style="fill:rgb(195,221,218);fill-rule:nonzero;"/>
        </g>
        <g transform="matrix(1.88057,0,0,-1.8841,626.184,832.376)">
            <path d="M91.428,90.243C91.488,89.313 91.368,88.483 91.158,87.763C90.448,85.323 86.888,85.103 85.868,87.433C85.568,88.133 85.348,88.933 85.288,89.863C85.038,93.823 87.738,99.963 87.738,99.963C87.738,99.963 91.178,94.203 91.428,90.243Z" style="fill:rgb(195,221,218);fill-rule:nonzero;"/>
        </g>
        <g transform="matrix(1.88057,0,0,-1.8841,626.184,805.189)">
            <path d="M99.858,83.803C100.308,82.093 98.248,80.713 96.808,81.753C96.378,82.063 95.958,82.473 95.588,83.013C94.018,85.303 93.438,89.923 93.438,89.923C93.438,89.923 97.568,87.673 99.138,85.383C99.498,84.853 99.728,84.313 99.858,83.803Z" style="fill:rgb(231,242,241);fill-rule:nonzero;"/>
        </g>
        <g transform="matrix(1.88057,0,0,-1.8841,626.184,891.82)">
            <path d="M85.168,113.943C85.168,113.943 86.898,109.183 86.508,106.193C86.418,105.493 86.218,104.893 85.948,104.383C85.068,102.673 82.388,103.013 81.968,104.893C81.848,105.453 81.798,106.083 81.888,106.783C82.278,109.763 85.168,113.943 85.168,113.943Z" style="fill:rgb(231,242,241);fill-rule:nonzero;"/>
        </g>
        <g transform="matrix(1.3233,1.33871,-1.33621,1.32578,833.54,441.918)">
            <path d="M81.709,118.193C83.329,118.178 84.629,119.466 84.623,121.078C84.623,122.683 83.322,123.998 81.709,124.02C80.104,124.035 78.804,122.747 78.796,121.135C78.803,119.523 80.104,118.208 81.709,118.193Z" style="fill:rgb(231,242,241);fill-rule:nonzero;"/>
        </g>
        <g transform="matrix(1.88057,0,0,-1.8841,626.184,908.117)">
            <path d="M74.808,117.813C74.808,117.813 76.398,113.433 76.048,110.693C75.968,110.053 75.778,109.493 75.528,109.023C74.718,107.453 72.258,107.763 71.868,109.493C71.758,110.003 71.718,110.583 71.798,111.223C72.148,113.973 74.808,117.813 74.808,117.813Z" style="fill:rgb(195,221,218);fill-rule:nonzero;"/>
        </g>
        <g transform="matrix(1.88057,0,0,-1.8841,626.184,847.92)">
            <path d="M75.518,103.863C75.518,103.863 76.208,97.213 74.758,93.513C74.418,92.643 73.958,91.943 73.458,91.373C71.778,89.453 68.448,90.733 68.518,93.263C68.538,94.023 68.678,94.843 69.018,95.713C70.468,99.413 75.518,103.863 75.518,103.863Z" style="fill:rgb(231,242,241);fill-rule:nonzero;"/>
        </g>
        <g transform="matrix(1.32492,1.3371,-1.33459,1.32741,809.955,459.23)">
            <ellipse cx="64.451" cy="110.863" rx="1.946" ry="1.952" style="fill:rgb(195,221,218);"/>
        </g>
        <g transform="matrix(1.88057,0,0,-1.8841,626.184,563.044)">
            <path d="M40.048,31.403L64.798,11.213C63.938,10.823 62.958,10.713 61.998,10.923C61.008,11.143 59.898,11.433 58.698,11.823C55.648,14.713 52.268,17.703 48.568,20.703C45.198,23.443 41.908,25.923 38.748,28.173C38.718,29.343 39.158,30.513 40.048,31.403Z" style="fill:rgb(20,152,183);fill-rule:nonzero;"/>
        </g>
        <g transform="matrix(1.88057,0,0,-1.8841,626.184,567.038)">
            <path d="M58.698,13.943C55.508,14.953 51.698,16.623 47.878,19.413C44.088,22.183 41.418,25.243 39.578,27.803C39.038,28.563 38.768,29.433 38.748,30.293C41.908,28.043 45.198,25.563 48.568,22.823C52.268,19.823 55.648,16.833 58.698,13.943Z" style="fill:rgb(231,242,241);fill-rule:nonzero;"/>
        </g>
        <g transform="matrix(1.88057,0,0,-1.8841,626.184,679.011)">
            <path d="M81.018,21.483C77.728,19.713 74.708,19.043 72.738,18.753C71.068,21.083 68.418,24.183 64.448,26.943C64.378,26.993 64.318,27.043 64.248,27.083C56.788,32.203 47.168,33.083 38.758,29.693C36.608,28.823 34.448,27.953 32.288,27.093C30.018,26.173 27.418,26.693 25.688,28.403L1.778,52.053C-0.592,54.403 -0.592,58.213 1.778,60.563L26.398,84.913C13.638,72.113 21.838,44.283 47.098,38.763C72.378,33.253 81.018,21.483 81.018,21.483Z" style="fill:rgb(20,152,183);fill-rule:nonzero;"/>
        </g>
    </g>
</svg>
