<?xml version="1.0" encoding="UTF-8"?><svg id="a" xmlns="http://www.w3.org/2000/svg" viewBox="0 0 400 400"><defs><style>.b{fill:#f6f4f0;}.c{fill:#34b57c;opacity:.15;}.d{fill:#fff;}.d,.e{stroke:#34b57c;stroke-linecap:round;stroke-linejoin:round;stroke-width:3px;}.e{fill:none;}</style></defs><circle class="b" cx="200" cy="200" r="200"/><g><rect class="e" x="89.51" y="89.51" width="219.28" height="220.85"/><g><circle class="d" cx="116.9" cy="120.94" r="8.38"/><circle class="d" cx="169.37" cy="120.93" r="8.38"/><line class="e" x1="125.82" y1="120.94" x2="160.82" y2="120.94"/><line class="e" x1="143.68" y1="113.2" x2="143.68" y2="127.81"/><line class="e" x1="140.36" y1="154.99" x2="189.93" y2="154.99"/><rect class="e" x="136.98" y="128.12" width="13.41" height="9.58"/><rect class="e" x="136.98" y="171.28" width="13.41" height="9.58"/><polyline class="e" points="150.39 137.7 159.92 154.63 150.39 171.28"/><polyline class="e" points="136.98 138.24 127.45 155.16 136.98 171.81"/><line class="e" x1="211.16" y1="154.99" x2="241.5" y2="154.99"/><polyline class="d" points="274.7 168.05 274.7 196.11 246.77 196.11 246.77 168.05"/><line class="e" x1="246.77" y1="177.51" x2="274.53" y2="177.51"/><line class="e" x1="246.71" y1="186.8" x2="274.48" y2="186.8"/><polyline class="d" points="174.25 188.94 113.7 188.94 113.7 206.67 121.36 206.67 138.52 189.19"/><line class="e" x1="144.14" y1="181.69" x2="144.14" y2="196.3"/><polyline class="e" points="211.16 205.82 211.16 154.95 200.63 136.91 189.93 154.95 189.93 205.82"/><rect class="d" x="158.16" y="206.12" width="83.97" height="43.1" rx="2.64" ry="2.64"/><g><line class="e" x1="165.19" y1="227.68" x2="236.39" y2="227.68"/><line class="e" x1="178.91" y1="213.07" x2="178.91" y2="242.28"/><line class="e" x1="200.59" y1="213.07" x2="200.59" y2="242.28"/><line class="e" x1="222.14" y1="213.07" x2="222.14" y2="242.28"/></g><line class="e" x1="190.09" y1="249.3" x2="190.09" y2="273.31"/><line class="e" x1="211.32" y1="273.31" x2="211.32" y2="249.46"/><rect class="e" x="160.56" y="274.2" width="79.82" height="13.25" rx="2.64" ry="2.64"/><line class="e" x1="128.17" y1="155.02" x2="136.11" y2="155.02"/><rect class="d" x="241.82" y="128.92" width="37.04" height="38.95" rx="2.64" ry="2.64"/><line class="e" x1="241.98" y1="137.54" x2="278.85" y2="137.54"/></g></g><path class="c" d="M400,200c0,110.46-89.54,200-200,200-15.25,0-30.11-1.71-44.38-4.94l-66.11-84.7h219.28V89.51l88.9,80.01c1.52,9.94,2.31,20.12,2.31,30.48Z"/></svg>