<?xml version="1.0" encoding="UTF-8" standalone="no"?>
<!DOCTYPE svg PUBLIC "-//W3C//DTD SVG 1.1//EN" "http://www.w3.org/Graphics/SVG/1.1/DTD/svg11.dtd">
<svg width="100%" height="100%" viewBox="0 0 800 600" version="1.1" xmlns="http://www.w3.org/2000/svg" xmlns:xlink="http://www.w3.org/1999/xlink" xml:space="preserve" xmlns:serif="http://www.serif.com/" style="fill-rule:evenodd;clip-rule:evenodd;stroke-linejoin:round;stroke-miterlimit:2;">
    <g transform="matrix(2.4001,0,0,2.4001,-2213.24,0)">
        <path d="M1123.09,102.07C1130.14,91.67 1137.44,80.91 1137.44,71.51C1137.44,44.33 1116.59,23.04 1089.97,23.04C1063.35,23.04 1042.5,44.33 1042.5,71.51C1042.5,82.82 1050.6,94.61 1057.75,105.01C1062.38,111.74 1066.75,118.11 1068.28,123.36L1068.46,146.5C1068.46,146.5 1068.45,146.59 1068.45,146.64C1068.45,146.7 1068.46,146.75 1068.47,146.8L1068.54,155.69C1068.49,155.84 1068.45,156 1068.45,156.17C1068.45,156.35 1068.49,156.52 1068.54,156.67L1068.54,156.95L1078.25,166.94L1101.47,166.94L1110.57,157.01L1110.57,147.29C1110.67,147.09 1110.73,146.87 1110.73,146.63C1110.73,146.39 1110.67,146.17 1110.57,145.97L1110.57,123.88C1112.93,117.04 1118.09,109.42 1123.09,102.05L1123.09,102.07ZM1100.15,163.94L1079.52,163.94L1073.42,157.67L1105.89,157.67L1100.14,163.94L1100.15,163.94ZM1107.57,154.67L1071.52,154.67L1071.47,148.13L1107.57,148.13L1107.57,154.67ZM1107.57,145.13L1071.45,145.13L1071.39,137.51L1107.57,137.51L1107.57,145.13ZM1107.57,134.51L1071.37,134.51L1071.3,125.32L1107.57,125.32L1107.57,134.51ZM1087.9,112.03C1087.76,111.95 1075.26,104.82 1070.26,93.3L1086.39,104.03L1086.39,106.73C1086.34,107.45 1086.63,108.23 1087.16,108.8C1087.69,109.38 1088.41,109.7 1089.18,109.71C1090.35,109.71 1090.98,109.29 1091.35,108.93C1091.88,108.41 1092.16,107.67 1092.15,106.8L1092.15,99.59L1109.7,89.77C1109.28,91.3 1108.49,93.57 1107.06,96.18C1104.64,100.62 1099.84,106.99 1090.69,112.17L1090.18,112.46L1090.18,122.33L1088.4,122.33L1088.4,112.33L1087.9,112.04L1087.9,112.03ZM1107.95,122.32L1092.18,122.32L1092.18,113.61C1110.14,103.19 1112.07,88.54 1112.14,87.92L1112.37,85.97L1090.14,98.4L1090.14,106.79C1090.14,106.98 1090.11,107.32 1089.93,107.5C1089.76,107.67 1089.41,107.69 1089.2,107.7C1088.98,107.7 1088.79,107.61 1088.63,107.44C1088.45,107.24 1088.38,107 1088.39,106.79L1088.39,102.95L1066.5,88.4L1067.31,91.06C1071.14,103.73 1083.67,111.83 1086.41,113.48L1086.41,122.33L1071.09,122.33C1069.38,116.66 1064.93,110.18 1060.22,103.32C1053.32,93.28 1045.5,81.89 1045.5,71.52C1045.5,46.02 1065.03,26.05 1089.97,26.05C1114.91,26.05 1134.44,46.02 1134.44,71.52C1134.44,80 1127.41,90.36 1120.61,100.39C1115.64,107.72 1110.52,115.28 1107.96,122.33L1107.95,122.32Z" style="fill:rgb(46,102,95);fill-rule:nonzero;"/>
        <path d="M1089.35,17.71C1090.18,17.71 1090.85,17.04 1090.85,16.21L1090.85,1.5C1090.85,0.67 1090.18,0 1089.35,0C1088.52,0 1087.85,0.67 1087.85,1.5L1087.85,16.21C1087.85,17.04 1088.52,17.71 1089.35,17.71Z" style="fill:rgb(46,102,95);fill-rule:nonzero;"/>
        <path d="M1059.52,24.47C1059.8,24.92 1060.29,25.17 1060.79,25.17C1061.06,25.17 1061.34,25.1 1061.59,24.94C1062.29,24.5 1062.5,23.57 1062.06,22.87L1054.24,10.41C1053.8,9.71 1052.87,9.5 1052.17,9.94C1051.47,10.38 1051.26,11.31 1051.7,12.01L1059.52,24.47Z" style="fill:rgb(46,102,95);fill-rule:nonzero;"/>
        <path d="M1025.07,39.71L1037.96,46.81C1038.19,46.94 1038.44,47 1038.68,47C1039.21,47 1039.72,46.72 1040,46.22C1040.4,45.49 1040.14,44.58 1039.41,44.18L1026.52,37.08C1025.79,36.68 1024.88,36.94 1024.48,37.67C1024.08,38.4 1024.34,39.31 1025.07,39.71Z" style="fill:rgb(46,102,95);fill-rule:nonzero;"/>
        <path d="M1032.49,75.28C1032.49,74.45 1031.82,73.78 1030.99,73.78L1016.28,73.78C1015.45,73.78 1014.78,74.45 1014.78,75.28C1014.78,76.11 1015.45,76.78 1016.28,76.78L1030.99,76.78C1031.82,76.78 1032.49,76.11 1032.49,75.28Z" style="fill:rgb(46,102,95);fill-rule:nonzero;"/>
        <path d="M1038.3,103.52L1025.41,110.62C1024.68,111.02 1024.42,111.93 1024.82,112.66C1025.09,113.16 1025.61,113.44 1026.14,113.44C1026.38,113.44 1026.63,113.38 1026.86,113.25L1039.75,106.15C1040.48,105.75 1040.74,104.84 1040.34,104.11C1039.94,103.39 1039.03,103.12 1038.3,103.52Z" style="fill:rgb(46,102,95);fill-rule:nonzero;"/>
        <path d="M1116.01,20.86C1116.26,21.02 1116.53,21.09 1116.81,21.09C1117.31,21.09 1117.8,20.84 1118.08,20.39L1125.9,7.93C1126.34,7.23 1126.13,6.3 1125.43,5.86C1124.73,5.42 1123.8,5.63 1123.36,6.33L1115.54,18.79C1115.1,19.49 1115.31,20.42 1116.01,20.86Z" style="fill:rgb(46,102,95);fill-rule:nonzero;"/>
        <path d="M1138.93,42.91C1139.18,42.91 1139.42,42.85 1139.65,42.72L1152.54,35.62C1153.27,35.22 1153.53,34.31 1153.13,33.58C1152.73,32.85 1151.82,32.59 1151.09,32.99L1138.2,40.09C1137.47,40.49 1137.21,41.4 1137.61,42.13C1137.88,42.63 1138.4,42.91 1138.92,42.91L1138.93,42.91Z" style="fill:rgb(46,102,95);fill-rule:nonzero;"/>
        <path d="M1161.33,69.7L1146.62,69.7C1145.79,69.7 1145.12,70.37 1145.12,71.2C1145.12,72.03 1145.79,72.7 1146.62,72.7L1161.33,72.7C1162.16,72.7 1162.83,72.03 1162.83,71.2C1162.83,70.37 1162.16,69.7 1161.33,69.7Z" style="fill:rgb(46,102,95);fill-rule:nonzero;"/>
        <path d="M1152.19,106.53L1139.3,99.43C1138.58,99.03 1137.66,99.29 1137.26,100.02C1136.86,100.75 1137.12,101.66 1137.85,102.06L1150.74,109.16C1150.97,109.29 1151.22,109.35 1151.46,109.35C1151.99,109.35 1152.5,109.07 1152.77,108.57C1153.17,107.84 1152.91,106.93 1152.18,106.53L1152.19,106.53Z" style="fill:rgb(46,102,95);fill-rule:nonzero;"/>
        <path d="M1075.43,53.09L1074.34,53.81L1088.33,66.07L1088.33,30.15L1086.37,37.24C1083.49,47.65 1075.51,53.05 1075.43,53.1L1075.43,53.09ZM1086.33,61.66L1077.57,53.99C1079.46,52.49 1083.49,48.84 1086.33,42.97L1086.33,61.66Z" style="fill:rgb(46,102,95);fill-rule:nonzero;"/>
        <path d="M1074.31,56.28L1073.52,55.57L1072.86,56.4C1069.57,60.54 1067.7,65.1 1067.62,65.29L1067.33,65.99L1088.32,82.18L1088.32,68.07L1087.94,67.77C1087.87,67.71 1080.65,61.97 1074.3,56.27L1074.31,56.28ZM1086.33,78.12L1069.78,65.35C1070.36,64.08 1071.75,61.23 1073.78,58.48C1079.12,63.23 1084.83,67.84 1086.33,69.04L1086.33,78.12Z" style="fill:rgb(46,102,95);fill-rule:nonzero;"/>
        <path d="M1066.25,68.67C1063.93,75.47 1066.13,85.09 1066.22,85.49L1066.31,85.88L1088.33,100.52L1088.33,84.27L1066.71,67.34L1066.25,68.67ZM1067.75,70.7L1086.33,85.25L1086.33,96.79L1068.09,84.66C1067.74,82.98 1066.48,76.1 1067.75,70.7Z" style="fill:rgb(46,102,95);fill-rule:nonzero;"/>
        <path d="M1112.32,68.04L1111.26,68.66C1101.93,74.1 1090.81,79.49 1090.7,79.55L1090.13,79.83L1090.33,95.94L1113.44,83.27L1113.49,82.74C1113.53,82.38 1114.32,73.91 1112.71,69.2L1112.32,68.04ZM1111.54,82.02L1092.29,92.57L1092.15,81.06C1094.44,79.93 1103.24,75.57 1111.15,71.03C1112,74.8 1111.67,80.31 1111.54,82.02Z" style="fill:rgb(46,102,95);fill-rule:nonzero;"/>
        <path d="M1111.36,65.84C1111.29,65.63 1109.48,60.52 1104.14,53.92L1103.61,53.26L1090.14,60.87L1090.14,77.76L1111.64,66.66L1111.36,65.84ZM1092.14,74.48L1092.14,62.05L1103.11,55.85C1106.67,60.38 1108.47,64.13 1109.15,65.7L1092.14,74.48Z" style="fill:rgb(46,102,95);fill-rule:nonzero;"/>
        <path d="M1101.11,50.87C1094.13,44.84 1092.14,36.49 1092.12,36.4L1090.15,27.82L1090.15,58.49L1102.2,51.81L1101.12,50.87L1101.11,50.87ZM1092.15,55.09L1092.15,42.2C1093.47,44.96 1095.56,48.37 1098.75,51.43L1092.15,55.09Z" style="fill:rgb(46,102,95);fill-rule:nonzero;"/>
        <path d="M1046.63,189.38C1044.89,187.91 1042.31,187.16 1038.95,187.16C1035.59,187.16 1033.01,187.91 1031.29,189.38C1029.56,190.87 1028.68,192.99 1028.68,195.7L1028.68,219.07C1028.68,221.78 1029.57,223.91 1031.32,225.39C1033.05,226.86 1035.64,227.61 1039,227.61C1042.36,227.61 1044.94,226.86 1046.66,225.39C1048.39,223.9 1049.27,221.78 1049.27,219.07L1049.27,195.7C1049.27,192.99 1048.38,190.86 1046.63,189.38ZM1044.45,195.7L1044.45,219.07C1044.45,221.97 1042.66,223.38 1038.97,223.38C1035.28,223.38 1033.49,221.97 1033.49,219.07L1033.49,195.7C1033.49,192.8 1035.28,191.39 1038.97,191.39C1042.66,191.39 1044.45,192.8 1044.45,195.7Z" style="fill:rgb(46,102,95);fill-rule:nonzero;"/>
        <path d="M1079.24,188.04L1073.82,188.04L1064.22,203.26L1064.22,188.04L1059.4,188.04L1059.4,226.74L1064.22,226.74L1064.22,211.87L1065.75,209.41L1074.56,226.74L1079.87,226.74L1068.66,204.78L1079.24,188.04Z" style="fill:rgb(46,102,95);fill-rule:nonzero;"/>
        <path d="M1094.99,187.16C1091.79,187.16 1089.36,187.91 1087.76,189.39C1086.15,190.88 1085.33,193 1085.33,195.7L1085.33,199.28L1090.15,199.28L1090.15,195.47C1090.15,192.73 1091.73,191.4 1094.98,191.4C1096.63,191.4 1097.89,191.76 1098.71,192.48C1099.53,193.19 1099.93,194.17 1099.93,195.48L1099.93,204.69L1093.52,204.69C1087.7,204.69 1084.74,207.56 1084.74,213.23L1084.74,219.07C1084.74,224.74 1087.69,227.61 1093.52,227.61C1095.18,227.61 1096.72,227.17 1098.1,226.3C1099.27,225.56 1100.26,224.6 1101.05,223.43L1102.39,226.74L1104.75,226.74L1104.75,195.71C1104.75,193.01 1103.91,190.88 1102.26,189.39C1100.62,187.91 1098.17,187.16 1094.98,187.16L1094.99,187.16ZM1089.57,213.23C1089.57,211.84 1089.86,210.75 1090.43,210.01C1090.98,209.29 1092.02,208.93 1093.53,208.93L1099.94,208.93L1099.94,218.07C1099.86,219.21 1099.16,220.39 1097.84,221.58C1096.51,222.78 1095.06,223.38 1093.53,223.38C1092,223.38 1090.98,223.02 1090.43,222.3C1089.86,221.55 1089.57,220.47 1089.57,219.08L1089.57,213.23Z" style="fill:rgb(46,102,95);fill-rule:nonzero;"/>
        <path d="M1135.03,188.04L1129.6,188.04L1120.01,203.26L1120.01,188.04L1115.19,188.04L1115.19,226.74L1120.01,226.74L1120.01,211.87L1121.54,209.41L1130.34,226.74L1135.66,226.74L1124.44,204.78L1135.03,188.04Z" style="fill:rgb(46,102,95);fill-rule:nonzero;"/>
        <rect x="1141.71" y="188.04" width="4.82" height="38.7" style="fill:rgb(46,102,95);"/>
        <path d="M1045.99,246.28L1043.59,243.97C1043.38,243.77 1043.24,243.59 1043.17,243.41C1043.11,243.23 1043.08,242.99 1043.08,242.67C1043.08,242.35 1043.18,242.11 1043.4,241.93C1043.61,241.75 1043.93,241.66 1044.35,241.66C1044.77,241.66 1045.09,241.75 1045.3,241.93C1045.51,242.11 1045.62,242.36 1045.62,242.68L1045.62,243.88L1046.56,243.88L1046.56,242.74C1046.56,241.49 1045.84,240.86 1044.4,240.86C1043.65,240.86 1043.09,241.02 1042.71,241.35C1042.34,241.68 1042.15,242.14 1042.15,242.74C1042.15,243.14 1042.2,243.48 1042.3,243.74C1042.4,244 1042.59,244.28 1042.87,244.55L1045.23,246.86C1045.44,247.07 1045.57,247.26 1045.64,247.44C1045.71,247.62 1045.74,247.87 1045.74,248.18C1045.74,248.49 1045.63,248.73 1045.4,248.91C1045.18,249.09 1044.84,249.18 1044.41,249.18C1043.98,249.18 1043.64,249.09 1043.42,248.91C1043.2,248.73 1043.08,248.48 1043.08,248.16L1043.08,246.97L1042.14,246.97L1042.14,248.11C1042.14,249.36 1042.9,249.99 1044.41,249.99C1045.92,249.99 1046.68,249.36 1046.68,248.11C1046.68,247.71 1046.63,247.37 1046.53,247.11C1046.43,246.85 1046.25,246.57 1045.99,246.28Z" style="fill:rgb(46,102,95);fill-rule:nonzero;"/>
        <path d="M1054.98,240.85C1054.28,240.85 1053.72,241.18 1053.29,241.83C1053.04,241.18 1052.46,240.85 1051.56,240.85C1051.2,240.85 1050.87,240.95 1050.57,241.14C1050.27,241.33 1050.02,241.59 1049.83,241.91L1049.49,241.05L1049.09,241.05L1049.09,249.78L1050.03,249.78L1050.03,242.96C1050.03,242.67 1050.19,242.38 1050.51,242.09C1050.83,241.8 1051.17,241.65 1051.55,241.65C1052.19,241.65 1052.52,242.01 1052.52,242.72L1052.52,249.77L1053.46,249.77L1053.46,242.99C1053.46,242.7 1053.62,242.41 1053.94,242.1C1054.26,241.8 1054.6,241.64 1054.98,241.64C1055.62,241.64 1055.95,242 1055.95,242.71L1055.95,249.76L1056.89,249.76L1056.89,242.71C1056.89,241.46 1056.26,240.83 1055,240.83L1054.98,240.85Z" style="fill:rgb(46,102,95);fill-rule:nonzero;"/>
        <path d="M1061.43,240.85C1060.71,240.85 1060.18,241.01 1059.83,241.34C1059.48,241.67 1059.3,242.13 1059.3,242.73L1059.3,243.47L1060.24,243.47L1060.24,242.68C1060.24,242 1060.64,241.66 1061.43,241.66C1061.83,241.66 1062.14,241.75 1062.34,241.93C1062.55,242.11 1062.65,242.36 1062.65,242.68L1062.65,244.88L1061.09,244.88C1059.8,244.88 1059.16,245.51 1059.16,246.76L1059.16,248.1C1059.16,249.35 1059.8,249.98 1061.09,249.98C1061.46,249.98 1061.79,249.88 1062.1,249.69C1062.4,249.5 1062.65,249.24 1062.84,248.92L1063.19,249.78L1063.59,249.78L1063.59,242.73C1063.59,242.13 1063.41,241.67 1063.05,241.34C1062.69,241.01 1062.15,240.85 1061.43,240.85ZM1062.65,247.87C1062.63,248.16 1062.46,248.45 1062.14,248.74C1061.82,249.03 1061.47,249.18 1061.09,249.18C1060.71,249.18 1060.45,249.09 1060.31,248.9C1060.17,248.71 1060.1,248.45 1060.1,248.11L1060.1,246.77C1060.1,246.43 1060.17,246.17 1060.31,245.98C1060.45,245.79 1060.71,245.7 1061.09,245.7L1062.65,245.7L1062.65,247.89L1062.65,247.87Z" style="fill:rgb(46,102,95);fill-rule:nonzero;"/>
        <path d="M1068.3,240.85C1067.67,240.85 1067.22,241.25 1066.93,242.05L1066.54,241.06L1066.14,241.06L1066.14,249.79L1067.08,249.79L1067.08,243.65C1067.08,243.01 1067.2,242.51 1067.45,242.17C1067.7,241.83 1067.97,241.66 1068.26,241.66C1068.75,241.66 1069,241.96 1069,242.55L1069,243.48L1069.9,243.48L1069.9,242.61C1069.9,241.45 1069.37,240.86 1068.3,240.86L1068.3,240.85Z" style="fill:rgb(46,102,95);fill-rule:nonzero;"/>
        <path d="M1073.73,248.29C1073.73,248.55 1073.67,248.76 1073.54,248.93C1073.41,249.1 1073.23,249.18 1073,249.18C1072.77,249.18 1072.58,249.1 1072.45,248.93C1072.32,248.76 1072.26,248.55 1072.26,248.3L1072.26,241.87L1074.27,241.87L1074.27,241.06L1071.32,241.06L1071.32,248.24C1071.32,248.8 1071.47,249.24 1071.78,249.54C1072.09,249.84 1072.5,249.99 1073.01,249.99C1073.52,249.99 1073.93,249.84 1074.22,249.54C1074.51,249.24 1074.67,248.81 1074.67,248.24L1074.67,246.7L1073.73,246.7L1073.73,248.3L1073.73,248.29Z" style="fill:rgb(46,102,95);fill-rule:nonzero;"/>
        <path d="M1081.64,240.85C1080.91,240.85 1080.36,241.01 1079.99,241.34C1079.62,241.67 1079.44,242.13 1079.44,242.73L1079.44,248.1C1079.44,248.7 1079.63,249.16 1080,249.49C1080.38,249.82 1080.93,249.98 1081.67,249.98C1082.41,249.98 1082.95,249.82 1083.32,249.49C1083.69,249.16 1083.87,248.7 1083.87,248.1L1083.87,245.35L1081.43,245.35L1081.43,246.16L1082.93,246.16L1082.93,248.11C1082.93,248.83 1082.51,249.18 1081.65,249.18C1080.79,249.18 1080.37,248.82 1080.37,248.11L1080.37,242.74C1080.37,242.02 1080.79,241.67 1081.65,241.67C1082.51,241.67 1082.93,242.03 1082.93,242.74L1082.93,243.48L1083.87,243.48L1083.87,242.74C1083.87,242.14 1083.68,241.68 1083.31,241.35C1082.93,241.02 1082.38,240.86 1081.65,240.86L1081.64,240.85Z" style="fill:rgb(46,102,95);fill-rule:nonzero;"/>
        <path d="M1088.35,240.85C1087.63,240.85 1087.1,241.01 1086.75,241.34C1086.4,241.67 1086.22,242.13 1086.22,242.73L1086.22,243.47L1087.16,243.47L1087.16,242.68C1087.16,242 1087.56,241.66 1088.35,241.66C1088.75,241.66 1089.06,241.75 1089.26,241.93C1089.47,242.11 1089.57,242.36 1089.57,242.68L1089.57,244.88L1088.01,244.88C1086.72,244.88 1086.08,245.51 1086.08,246.76L1086.08,248.1C1086.08,249.35 1086.72,249.98 1088.01,249.98C1088.38,249.98 1088.71,249.88 1089.02,249.69C1089.32,249.5 1089.57,249.24 1089.76,248.92L1090.11,249.78L1090.51,249.78L1090.51,242.73C1090.51,242.13 1090.33,241.67 1089.97,241.34C1089.61,241.01 1089.07,240.85 1088.35,240.85ZM1089.57,247.87C1089.55,248.16 1089.38,248.45 1089.06,248.74C1088.74,249.03 1088.39,249.18 1088.01,249.18C1087.63,249.18 1087.37,249.09 1087.23,248.9C1087.09,248.71 1087.02,248.45 1087.02,248.11L1087.02,246.77C1087.02,246.43 1087.09,246.17 1087.23,245.98C1087.37,245.79 1087.63,245.7 1088.01,245.7L1089.57,245.7L1089.57,247.89L1089.57,247.87Z" style="fill:rgb(46,102,95);fill-rule:nonzero;"/>
        <path d="M1095.22,240.85C1094.59,240.85 1094.14,241.25 1093.85,242.05L1093.46,241.06L1093.06,241.06L1093.06,249.79L1094,249.79L1094,243.65C1094,243.01 1094.12,242.51 1094.37,242.17C1094.62,241.83 1094.89,241.66 1095.18,241.66C1095.67,241.66 1095.92,241.96 1095.92,242.55L1095.92,243.48L1096.82,243.48L1096.82,242.61C1096.82,241.45 1096.29,240.86 1095.22,240.86L1095.22,240.85Z" style="fill:rgb(46,102,95);fill-rule:nonzero;"/>
        <path d="M1100.6,241.06L1098.43,241.06L1098.43,249.79L1100.59,249.79C1101.3,249.79 1101.83,249.63 1102.19,249.3C1102.55,248.97 1102.73,248.51 1102.73,247.91L1102.73,242.94C1102.73,242.35 1102.55,241.89 1102.19,241.56C1101.83,241.23 1101.3,241.06 1100.6,241.06ZM1101.78,247.91C1101.78,248.63 1101.38,248.98 1100.59,248.98L1099.37,248.98L1099.37,241.86L1100.59,241.86C1100.97,241.86 1101.27,241.95 1101.48,242.14C1101.69,242.33 1101.79,242.59 1101.79,242.93L1101.79,247.9L1101.78,247.91Z" style="fill:rgb(46,102,95);fill-rule:nonzero;"/>
        <path d="M1107.21,240.85C1106.48,240.85 1105.93,241.01 1105.56,241.34C1105.19,241.67 1105.01,242.13 1105.01,242.73L1105.01,248.1C1105.01,248.7 1105.2,249.16 1105.57,249.49C1105.95,249.82 1106.5,249.98 1107.24,249.98C1107.98,249.98 1108.52,249.82 1108.89,249.49C1109.26,249.16 1109.44,248.7 1109.44,248.1L1109.44,247.36L1108.5,247.36L1108.5,248.1C1108.5,248.82 1108.08,249.17 1107.22,249.17C1106.36,249.17 1105.94,248.81 1105.94,248.1L1105.94,245.68L1109.43,245.68L1109.43,242.73C1109.43,242.13 1109.24,241.67 1108.87,241.34C1108.49,241.01 1107.94,240.85 1107.21,240.85ZM1108.51,244.88L1105.95,244.88L1105.95,242.73C1105.95,242.01 1106.37,241.66 1107.23,241.66C1108.09,241.66 1108.51,242.02 1108.51,242.73L1108.51,244.88Z" style="fill:rgb(46,102,95);fill-rule:nonzero;"/>
        <path d="M1114.45,240.85C1113.69,240.85 1113.09,241.21 1112.66,241.92L1112.32,241.05L1111.92,241.05L1111.92,249.78L1112.86,249.78L1112.86,243C1112.86,242.71 1113.03,242.42 1113.36,242.11C1113.69,241.81 1114.05,241.65 1114.45,241.65C1114.85,241.65 1115.11,241.74 1115.26,241.93C1115.41,242.12 1115.48,242.38 1115.48,242.72L1115.48,249.77L1116.42,249.77L1116.42,242.72C1116.42,241.47 1115.76,240.84 1114.45,240.84L1114.45,240.85Z" style="fill:rgb(46,102,95);fill-rule:nonzero;"/>
        <rect x="1118.97" y="241.06" width="0.94" height="8.73" style="fill:rgb(46,102,95);"/>
        <path d="M1125.12,240.85C1124.36,240.85 1123.76,241.21 1123.33,241.92L1122.99,241.05L1122.59,241.05L1122.59,249.78L1123.53,249.78L1123.53,243C1123.53,242.71 1123.7,242.42 1124.03,242.11C1124.36,241.81 1124.72,241.65 1125.12,241.65C1125.52,241.65 1125.78,241.74 1125.93,241.93C1126.08,242.12 1126.15,242.38 1126.15,242.72L1126.15,249.77L1127.09,249.77L1127.09,242.72C1127.09,241.47 1126.43,240.84 1125.12,240.84L1125.12,240.85Z" style="fill:rgb(46,102,95);fill-rule:nonzero;"/>
        <path d="M1133.88,243.47L1133.88,242.73C1133.88,242.13 1133.69,241.67 1133.32,241.34C1132.94,241.01 1132.39,240.85 1131.66,240.85C1130.93,240.85 1130.38,241.01 1130.01,241.34C1129.64,241.67 1129.46,242.13 1129.46,242.73L1129.46,248.1C1129.46,248.7 1129.65,249.16 1130.02,249.49C1130.4,249.82 1130.95,249.98 1131.69,249.98C1132.43,249.98 1132.97,249.82 1133.34,249.49C1133.71,249.16 1133.89,248.7 1133.89,248.1L1133.89,245.35L1131.45,245.35L1131.45,246.16L1132.95,246.16L1132.95,248.11C1132.95,248.83 1132.53,249.18 1131.67,249.18C1130.81,249.18 1130.39,248.82 1130.39,248.11L1130.39,242.74C1130.39,242.02 1130.81,241.67 1131.67,241.67C1132.53,241.67 1132.95,242.03 1132.95,242.74L1132.95,243.48L1133.89,243.48L1133.88,243.47Z" style="fill:rgb(46,102,95);fill-rule:nonzero;"/>
    </g>
</svg>
