<?xml version="1.0" encoding="UTF-8"?><svg id="a" xmlns="http://www.w3.org/2000/svg" viewBox="0 0 400 400"><defs><style>.b,.c,.d,.e{stroke:#35b67c;stroke-width:3px;}.b,.f{fill:#f6f4f0;}.b,.d,.e{stroke-linecap:round;stroke-linejoin:round;}.c{stroke-miterlimit:10;}.c,.e{fill:none;}.g,.d{fill:#fff;}.h,.i{fill:#35b67c;}.i{opacity:.15;}</style></defs><circle class="f" cx="200" cy="200" r="200"/><g><rect class="b" x="159.07" y="156.91" width="82.76" height="16.55"/><rect class="b" x="74.01" y="238.94" width="82.76" height="16.55" transform="translate(-131.82 362.61) rotate(-90)"/><rect class="b" x="244.04" y="238.78" width="82.76" height="16.55" transform="translate(38.36 532.48) rotate(-90)"/><polygon class="d" points="200.45 156.91 159.16 129.19 241.74 129.19 200.45 156.91"/><line class="b" x1="200.45" y1="142.2" x2="200.45" y2="156.91"/><g><path class="b" d="M124.17,216.33h27.59c4.62,0,13.1-2.31,13.73-11.07v-31.53"/><path class="b" d="M276.73,216.6h-27.59c-4.62,0-13.1-2.31-13.73-11.07v-31.53"/><path class="b" d="M276.73,278.06h-29.56c-10.9,.13-20.1,7.36-27.98,11.82-5.39,3.06-11.53,3.15-18.52,3.02,0,0-12.32,.5-18.96-3.05-7.99-4.27-17.08-11.69-27.98-11.82h-29.56"/></g></g><line class="c" x1="105.74" y1="216.41" x2=".68" y2="216.41"/><line class="c" x1="106.15" y1="278.04" x2="16.04" y2="278.04"/><line class="c" x1="399.49" y1="216.75" x2="292.82" y2="216.75"/><line class="c" x1="384" y1="277.99" x2="294.97" y2="277.99"/><path class="i" d="M123.84,215.44h27.59c4.62,0,13.1-2.31,13.73-11.07v-31.53l69.92,.28v31.53c.63,8.76,9.11,11.07,13.73,11.07h27.59v61.46h-29.56c-10.9,.13-20.1,7.36-27.98,11.82-5.39,3.06-11.53,3.15-18.52,3.02,0,0-12.32,.5-18.96-3.05-7.99-4.27-17.08-11.69-27.98-11.82h-29.56v-61.71Z"/><g><path class="e" d="M170.83,89.34c16.11-16.11,42.24-16.11,58.35,0"/><path class="e" d="M156.24,74.76c24.17-24.17,63.36-24.17,87.52,0"/><path class="e" d="M141.65,60.17c32.23-32.23,84.47-32.23,116.7,0"/><circle class="h" cx="200" cy="104.33" r="7.63"/></g><g><circle class="g" cx="129.15" cy="306.53" r="44.78"/><g><path class="h" d="M103.08,309.53c0-8.14,4.55-12.96,11.11-12.96s11.15,4.82,11.15,12.96-4.55,13.19-11.15,13.19-11.11-5.01-11.11-13.19Zm17.63,0c0-5.63-2.55-9.06-6.52-9.06s-6.52,3.43-6.52,9.06,2.55,9.3,6.52,9.3,6.52-3.63,6.52-9.3Z"/><path class="h" d="M130.39,297.03h4.59l7.87,14.2,2.58,5.36h.15c-.19-2.58-.58-5.79-.58-8.6v-10.96h4.28v25.23h-4.59l-7.87-14.2-2.58-5.36h-.15c.19,2.66,.58,5.71,.58,8.53v11.03h-4.28v-25.23Z"/></g></g><g><circle class="g" cx="273.87" cy="306.53" r="44.78"/><g><path class="h" d="M243.11,309.53c0-8.14,4.55-12.96,11.11-12.96s11.15,4.82,11.15,12.96-4.55,13.19-11.15,13.19-11.11-5.01-11.11-13.19Zm17.63,0c0-5.63-2.55-9.06-6.52-9.06s-6.52,3.43-6.52,9.06,2.55,9.3,6.52,9.3,6.52-3.63,6.52-9.3Z"/><path class="h" d="M270.42,297.03h15.24v3.78h-10.76v7.14h9.18v3.78h-9.18v10.53h-4.47v-25.23Z"/><path class="h" d="M290.09,297.03h15.24v3.78h-10.76v7.14h9.18v3.78h-9.18v10.53h-4.47v-25.23Z"/></g></g></svg>