<?xml version="1.0" encoding="UTF-8"?><svg id="a" xmlns="http://www.w3.org/2000/svg" xmlns:xlink="http://www.w3.org/1999/xlink" viewBox="0 0 400 400"><defs><style>.c,.d{fill:none;}.e{fill:#f6f4f0;}.f{fill:#35b67c;opacity:.15;}.g{clip-path:url(#b);}.h{fill:#fff;}.h,.d{stroke:#35b67c;stroke-linecap:round;stroke-linejoin:round;stroke-width:3px;}</style><clipPath id="b"><circle class="c" cx="200" cy="200" r="200"/></clipPath></defs><g class="g"><circle class="e" cx="200" cy="200" r="200"/><path class="d" d="M275.05,231.01s4.75-1.52,7.03-10.26c1.32-5.06,1.62-10.18,1.38-13.97"/><path class="d" d="M242.87,278.92l9.39-5.36s6.75-3.44,11.97-5.51c3.78-1.5,12.08-7.53,14.19-13.4"/><path class="d" d="M90.69,366.77c15.99-8.35,41.11-23.58,41.11-23.58,0,0,30.39-11.59,38.94-15.39,.61-.27,1.33-.6,2.16-.99,4.94-2.33,13.5-6.68,22.13-11.77,10.2-6.01,14.39-8.22,19.84-13.36"/><path class="d" d="M169.63,113.73c-1.28-.98-2.99-1.89-4.97-1.89-4.37,0-6.46,1.14-8.74,9.12-2.66,6.84-11.78,20.7-12.92,21.46s-6.84,5.32-7.41,6.46c-2.85,1.71-7.22,11.4-9.31,12.73s-19.37,15.2-27.16,18.04c-6.65,4.37-9.5,11.4-13.3,25.64-3.8,14.25-11.4,35.33-11.4,35.33,0,0-3.04,12.54-2.66,18.99,.38,6.46-10.07,20.7-16.33,25.26-3.67,2.76-15.13,10.25-26.12,19.12"/><path class="d" d="M155.1,186.89l-9.19,3.21-.74,.24-1.02,.33s1.9-3.61,4.75-5.32c1.82-1.09,5.62-5.3,8.23-8.36"/><path class="d" d="M265.54,157.98l11.16-61.23s.95-17.62-17.86-19.33"/><path class="d" d="M258.85,189.53c.37-2.01,.76-3.8,1.11-5.69"/><path class="d" d="M252.74,225.34c.74-4.08,1.08-7.05,1.82-11.13"/><path class="d" d="M140.16,279.86s4.23,12.69,13.34,14.21c9.12,1.52,63.91,7.62,69.33,7.62s17.39-2.86,19.9-22.06c1.01-5.29,3.16-16.42,5.98-31.86"/><path class="d" d="M252.75,191.86c9.12-49.67,19.07-103.31,19.07-103.31,0,0,2.47-11.21-15.2-11.21-17.66,0-62.49,.19-62.49,.19,0,0-15.66-.7-19.37,12.73-4.45,16.1-34.95,177.78-34.95,177.78,0,0-4.56,15.01,7.98,17.28s74.08,8.74,74.08,8.74c0,0,12.92-.19,16.14-20.51,1.18-7.46,6.15-35.02,11.84-66.07"/><polygon class="h" points="262.05 100.88 179.67 99.79 148.55 257.78 231.87 265.6 262.05 100.88"/><path class="d" d="M273.35,158.57c3-2.23,5.95-4.84,7.78-7.52,4.15-6.1,6.29-11.66,5.32-15.76-.59-2.49-1.92-7.28-6.76-7.84-3.3-.38-5.28-.32-8.71,.77"/><path class="d" d="M278.62,194.11c2.13-2.52,9.88-11.99,9.53-16.09-.34-4.05-1.43-15.09-9.67-17.78-7.17-2.35-14.13-3.73-17.69,.31-4.16,4.72-4.84,19.1-.19,24.12,3.42,3.69,4.77,5.88,4.77,5.88"/><path class="d" d="M283.41,204.61c-.05-6.54-3.99-11.02-9.12-12.16s-11.59-2.47-13.49-2.85-7.32,.59-9.69,3.8c-1.89,2.56-5.59,14.92,5.14,22.09,6.86,4.94,27.27,4.27,27.15-10.88Z"/><path class="d" d="M278.09,255.51s4.37-10.83,2.47-15.95-6.69-10.73-11.21-11.59c-4.35-.83-11.82-3.04-15.29-2.56-3.33,.46-5.53,2.89-6.74,6.17-1.95,5.27-2.09,13.63,3.42,16.9,4.03,2.4,11.8,7.65,18.28,8.31,4.54,.47,8.31,.81,9.07-1.28Z"/><g><path class="f" d="M282.12,205.08c-.05-6.54-3.99-11.02-9.12-12.16s-11.59-2.47-13.49-2.85-7.32,.59-9.69,3.8c-1.89,2.56-5.59,14.92,5.14,22.09,6.86,4.94,27.27,4.27,27.15-10.88Z"/><path class="f" d="M272.89,230.79l-19.96-4.78s.21-3.35,1.78-9.55c4.42,3.56,10.62,3.78,18.32,2.07s9.27-10.27,9.27-10.27c0,0,2.34,23.1-9.42,22.53Z"/><path class="f" d="M169.75,113.3c-1.28-.98-2.99-1.89-4.97-1.89-4.37,0-6.46,1.14-8.74,9.12-2.66,6.84-11.78,20.7-12.92,21.46-1.14,.76-6.84,5.32-7.41,6.46-2.85,1.71-7.22,11.4-9.31,12.73s-19.37,15.2-27.16,18.04c-6.65,4.37-9.5,11.4-13.3,25.64-3.8,14.25-11.4,35.33-11.4,35.33,0,0-3.04,12.54-2.66,18.99s-10.07,20.7-16.33,25.26c-3.67,2.76-20.34,14.42-26.12,19.12,4.7,11.58,15.83,21.9,27.18,35.78,0,0,12.61,13.88,33.14,27.41,1.86,1.23,42.16-24,42.16-24,0,0,30.39-11.59,38.94-15.39,.61-.27,1.33-.6,2.16-.99,4.94-2.33,13.5-6.68,22.13-11.77,10.2-6.01,14.39-8.22,19.84-13.36,0,0-49.65-5.65-61.36-7.62-8.15-1.37-17.35-7.26-14.28-24.96l30.4-155.38Z"/><path class="f" d="M241.58,279.39l9.39-5.36s6.75-3.44,11.97-5.51c3.78-1.5,10.42-4.85,12.53-10.72,0,0-10.76,1.07-16.46-3.35s-11.12-6.27-11.12-6.27l-6.3,31.22Z"/><path class="f" d="M277.33,194.58c2.13-2.52,9.88-11.99,9.53-16.09s-1.43-15.09-9.67-17.78c-1.75-.58-3.5-1.09-5.18-1.49-5.19-1.21-9.82-1.25-12.51,1.8-4.16,4.72-4.84,19.1-.19,24.12,3.42,3.69,4.77,5.88,4.77,5.88"/><path class="f" d="M276.8,255.98s4.37-10.83,2.47-15.95c-1.9-5.13-6.69-10.73-11.21-11.59-4.35-.83-11.82-3.04-15.29-2.56-3.33,.46-5.53,2.89-6.74,6.17-1.95,5.27-2.09,13.63,3.42,16.9,4.03,2.4,11.8,7.65,18.28,8.31,4.54,.47,8.31,.81,9.07-1.28Z"/><path class="f" d="M269.68,128.69c3.44-1.1,5.41-1.15,8.71-.77,4.84,.55,6.17,5.35,6.76,7.84,.97,4.11-1.16,9.66-5.32,15.76-1.83,2.69-4.78,5.3-7.78,7.52l-7.01-1.02,4.63-29.33Z"/></g></g></svg>