<?xml version="1.0" encoding="UTF-8"?><svg id="a" xmlns="http://www.w3.org/2000/svg" viewBox="0 0 400 400"><defs><style>.b{stroke-miterlimit:10;}.b,.c{fill:none;stroke:#35b67c;stroke-linecap:round;stroke-width:3px;}.d{fill:#f6f4f0;}.e{fill:#c1b49a;}.e,.f{opacity:.15;}.f{fill:#35b67c;}.c{stroke-linejoin:round;}</style></defs><circle class="d" cx="200" cy="200" r="200"/><g><circle class="b" cx="219.28" cy="133.13" r="7.86"/><g><g><polyline class="c" points="178.87 129.7 167.79 134.71 181.07 164.05 205.06 153.19"/><path class="c" d="M218.31,164.55l-51.27-46.85,135.27-61.24c5.4-2.44,11.75-.05,14.19,5.35l17.48,38.62c2.44,5.4,.05,11.75-5.35,14.19l-110.32,49.93Z"/><path class="c" d="M282.9,135.57c3.36,7.42,.07,16.16-7.35,19.51-7.42,3.36-16.16,.07-19.51-7.35"/><line class="c" x1="275.57" y1="156.72" x2="290.14" y2="200.79"/><line class="c" x1="350.87" y1="200.79" x2="290.14" y2="200.79"/><line class="c" x1="351.11" y1="177.14" x2="351.11" y2="224.45"/></g><circle class="b" cx="304.86" cy="95.68" r="7.86"/><circle class="b" cx="274.45" cy="96.84" r="7.86"/><circle class="b" cx="260.2" cy="115.77" r="7.86"/><circle class="b" cx="240.28" cy="111.88" r="7.86"/><polyline class="b" points="300.85 126.04 296.83 117.14 311.82 110.36 308.53 103.09"/><line class="b" x1="290.45" y1="130.64" x2="278.3" y2="103.75"/><polyline class="b" points="280.03 134.73 277.09 128.22 267.5 132.55 263.24 123.13"/><line class="b" x1="255.53" y1="146" x2="243.34" y2="119.03"/><polyline class="b" points="245.29 150.73 240.88 140.97 226.15 147.63 222.9 140.43"/></g></g><g><path class="e" d="M70.98,324.12H209.9c-1.54-31.04-30.83-24.86-40.25-21.94-30.17-45.2-78.02-14.88-82.48,1.27-9.77,3.65-16.58,10.05-16.19,20.67Z"/><g><path class="c" d="M211.39,323.85c0-13.25-12.06-25.11-26.94-25.11-5.23,0-10.5,1.47-14.63,3.77l-.17-.33c-7.44-13.72-22.95-23.16-40.88-23.16s-34.1,9.84-41.34,24.03l-.26,.4c-9.41,2.87-16.19,11.04-16.19,20.67l140.41-.27Z"/><line class="c" x1="135.79" y1="279.05" x2="135.79" y2="183.93"/><path class="c" d="M155.61,185.99c0,13.1-8.87,23.72-19.82,23.72s-19.82-10.62-19.82-23.72,19.82-35.64,19.82-35.64c0,0,19.82,22.54,19.82,35.64Z"/><path class="c" d="M126.63,228.45c9.26,9.26,10.5,23.04,2.76,30.78-7.74,7.74-21.52,6.51-30.78-2.76-9.26-9.26-11.19-39.22-11.19-39.22,0,0,29.95,1.93,39.22,11.19Z"/><path class="c" d="M144.96,227.8c-9.26,9.26-10.5,23.04-2.76,30.78,7.74,7.74,21.52,6.51,30.78-2.76,9.26-9.26,11.19-39.22,11.19-39.22,0,0-29.95,1.93-39.22,11.19Z"/><line class="c" x1="114.19" y1="244.36" x2="134.82" y2="264.99"/><line class="c" x1="157.48" y1="244.28" x2="136.85" y2="264.91"/></g><path class="f" d="M144.43,227.73c-9.5,9.5-10.77,23.64-2.83,31.58,7.94,7.94,22.08,6.67,31.58-2.83,9.5-9.5,11.48-40.23,11.48-40.23,0,0-30.73,1.98-40.23,11.48Z"/><path class="f" d="M115.66,187.44c0,13.12,8.89,23.76,19.85,23.76s19.85-10.64,19.85-23.76c0-13.12-19.85-35.7-19.85-35.7,0,0-19.85,22.58-19.85,35.7Z"/><path class="f" d="M98.45,256.58c9.25,9.25,23.01,10.48,30.73,2.75,7.73-7.73,6.49-21.49-2.75-30.73-9.25-9.25-39.15-11.17-39.15-11.17,0,0,1.92,29.9,11.17,39.15Z"/></g></svg>