<?xml version="1.0" encoding="UTF-8"?><svg id="a" xmlns="http://www.w3.org/2000/svg" viewBox="0 0 400 400"><defs><style>.b{fill:#f6f4f0;}.c{stroke:#fff;stroke-width:4px;}.c,.d,.e{stroke-linecap:round;stroke-linejoin:round;}.c,.e{fill:none;}.f{opacity:.15;}.f,.d{fill:#35b67c;}.d,.e{stroke:#35b67c;stroke-width:3px;}.g{fill:#c1b49a;opacity:.25;}</style></defs><circle class="b" cx="200" cy="200" r="200"/><path class="g" d="M391.01,259.47c-25.32,81.41-101.26,140.53-191.01,140.53S34.33,340.9,9,259.5l229.13-.02-.17,33.04,8.15,7.19,7.62-8.03,.92-32.2h136.36Z"/><g><line class="e" x1="174.22" y1="275.91" x2="184.49" y2="275.91"/><line class="e" x1="206.31" y1="275.91" x2="216.58" y2="275.91"/><line class="e" x1="190.41" y1="287.32" x2="200.68" y2="287.32"/><line class="e" x1="205.32" y1="298.73" x2="215.59" y2="298.73"/><line class="e" x1="171.98" y1="298.73" x2="182.25" y2="298.73"/></g><g><line class="e" x1="339.63" y1="298.73" x2="329.36" y2="298.73"/><line class="e" x1="307.54" y1="298.73" x2="297.27" y2="298.73"/><line class="e" x1="323.44" y1="287.32" x2="313.17" y2="287.32"/><line class="e" x1="291.75" y1="287.32" x2="281.48" y2="287.32"/><line class="e" x1="308.53" y1="275.91" x2="298.26" y2="275.91"/><line class="e" x1="341.87" y1="275.91" x2="331.6" y2="275.91"/></g><polyline class="e" points="254.26 231.06 254.26 292.52 246.11 299.71 237.96 292.52 237.96 231.06"/><rect class="e" x="228.61" y="65.02" width="34.99" height="165.59"/><g><path class="e" d="M271.73,306.05c-13.96,13.96-36.59,13.96-50.54,0"/><path class="e" d="M284.37,318.68c-20.94,20.94-54.88,20.94-75.82,0"/><path class="e" d="M297.01,331.32c-27.91,27.91-73.17,27.91-101.09,0"/></g><path class="d" d="M251.73,169.83c0,24.37,21.21,47.37,47.37,47.37s47.37-23.91,47.37-47.37c0-35.41-24.37-63.46-47.37-107.61-22.07,45.53-47.37,73.12-47.37,107.61Z"/><line class="c" x1="280.24" y1="186.38" x2="315.65" y2="146.83"/><circle class="c" cx="314.04" cy="181.55" r="8.05"/><circle class="c" cx="283.69" cy="150.74" r="8.05"/><g><line class="e" x1="104.88" y1="298.73" x2="94.61" y2="298.73"/><line class="e" x1="72.79" y1="298.73" x2="62.52" y2="298.73"/><line class="e" x1="88.69" y1="287.32" x2="78.42" y2="287.32"/><line class="e" x1="56.99" y1="287.32" x2="46.73" y2="287.32"/><line class="e" x1="73.78" y1="275.91" x2="63.51" y2="275.91"/><line class="e" x1="107.11" y1="275.91" x2="96.85" y2="275.91"/></g><line class="e" x1="136.58" y1="304.56" x2="136.58" y2="146.24"/><path class="e" d="M159.76,153.66c0,15.59-10.56,28.24-23.6,28.24s-23.6-12.64-23.6-28.24,23.6-42.43,23.6-42.43c0,0,23.6,26.84,23.6,42.43Z"/><path class="e" d="M125.67,199.24c11.03,11.03,12.5,27.44,3.28,36.65-9.21,9.21-25.62,7.75-36.65-3.28-11.03-11.03-13.32-46.69-13.32-46.69,0,0,35.66,2.29,46.69,13.32Z"/><path class="e" d="M147.49,198.47c-11.03,11.03-12.5,27.44-3.28,36.65,9.21,9.21,25.62,7.75,36.65-3.28,11.03-11.03,13.32-46.69,13.32-46.69,0,0-35.66,2.29-46.69,13.32Z"/><line class="e" x1="110.86" y1="218.19" x2="135.42" y2="242.75"/><line class="e" x1="162.4" y1="218.09" x2="137.84" y2="242.65"/><polyline class="e" points="137.48 276.09 152.98 288.95 152.98 306.02"/><polyline class="e" points="135.38 275.69 119.89 288.56 119.89 305.63"/><line class="e" x1="237.6" y1="93.37" x2="254.91" y2="93.37"/><line class="e" x1="237.6" y1="120.48" x2="254.91" y2="120.48"/><line class="e" x1="237.6" y1="147.58" x2="254.91" y2="147.58"/><line class="e" x1="237.6" y1="174.69" x2="254.91" y2="174.69"/><line class="e" x1="237.6" y1="201.79" x2="254.91" y2="201.79"/><path class="f" d="M147.26,198.11c-11.03,11.03-12.5,27.44-3.28,36.65,9.21,9.21,25.62,7.75,36.65-3.28,11.03-11.03,13.32-46.69,13.32-46.69,0,0-35.66,2.29-46.69,13.32Z"/><path class="f" d="M112.71,156.27c0,15.59,10.56,28.24,23.6,28.24,13.03,0,23.6-12.64,23.6-28.24,0-15.59-23.6-42.43-23.6-42.43,0,0-23.6,26.84-23.6,42.43Z"/><path class="f" d="M92.48,234.18c11.03,11.03,27.44,12.5,36.65,3.28,9.21-9.21,7.75-25.62-3.28-36.65-11.03-11.03-46.69-13.32-46.69-13.32,0,0,2.29,35.66,13.32,46.69Z"/></svg>