<?xml version="1.0" encoding="UTF-8" standalone="no"?>
<!DOCTYPE svg PUBLIC "-//W3C//DTD SVG 1.1//EN" "http://www.w3.org/Graphics/SVG/1.1/DTD/svg11.dtd">
<svg width="100%" height="100%" viewBox="0 0 800 600" version="1.1" xmlns="http://www.w3.org/2000/svg" xmlns:xlink="http://www.w3.org/1999/xlink" xml:space="preserve" xmlns:serif="http://www.serif.com/" style="fill-rule:evenodd;clip-rule:evenodd;stroke-linejoin:round;stroke-miterlimit:2;">
    <g transform="matrix(1.85214,0,0,1.85214,41.1685,-811.492)">
        <clipPath id="_clip1">
            <rect x="31.713" y="438.086" width="324" height="324"/>
        </clipPath>
        <g clip-path="url(#_clip1)">
            <g transform="matrix(1.27009,0,0,-1.27009,-76.2444,870.171)">
                <path d="M340.16,212.6C340.16,161.95 310.64,118.18 267.85,97.6C256.13,91.95 243.4,88.04 230.02,86.22L229.98,86.22C226.15,85.69 222.28,85.34 218.35,85.17C218.02,85.15 217.69,85.14 217.36,85.14C215.78,85.07 214.2,85.04 212.6,85.04C142.15,85.04 85.04,142.15 85.04,212.6C85.04,283.05 142.15,340.16 212.6,340.16C269.16,340.16 317.12,303.35 333.82,252.39C333.9,252.15 333.98,251.9 334.06,251.66C335.68,246.63 336.99,241.47 337.98,236.19C338.1,235.53 338.22,234.88 338.33,234.22C338.52,233.11 338.7,232 338.86,230.88C339.72,224.91 340.16,218.81 340.16,212.6Z" style="fill:rgb(144,212,246);fill-rule:nonzero;"/>
            </g>
            <g transform="matrix(1.27009,0,0,-1.27009,-76.2444,939.479)">
                <path d="M340.16,267.17C340.16,216.52 310.64,172.75 267.85,152.17C256.13,146.52 243.4,142.61 230.02,140.79L229.98,140.79C226.15,140.26 222.28,139.91 218.35,139.74C218.02,139.72 217.69,139.71 217.36,139.71L151.58,184.95L164.89,192.84L171.37,235.07L199.8,256.74L204.27,296.72L248.11,340.06L337.98,290.76C338.1,290.1 338.22,289.45 338.33,288.79C338.52,287.68 338.7,286.57 338.86,285.45C339.72,279.48 340.16,273.38 340.16,267.17Z" style="fill:rgb(82,195,241);fill-rule:nonzero;"/>
            </g>
            <g transform="matrix(0.893012,0.903138,-0.903138,0.893012,136.49,226.709)">
                <path d="M183.339,146.091C200.366,146.094 214.162,159.89 214.162,159.89C214.162,159.89 200.359,173.678 183.339,173.682C166.312,173.679 152.511,164.112 152.516,159.884C152.506,155.655 166.312,146.088 183.339,146.091Z" style="fill:rgb(149,193,39);fill-rule:nonzero;"/>
            </g>
            <g transform="matrix(-0.861426,0.933314,-0.933314,-0.861426,463.804,503.544)">
                <path d="M182.71,140.512C182.069,154.385 181.443,168.259 180.802,182.132C180.746,183.354 182.647,183.437 182.71,182.208C183.351,168.335 183.977,154.461 184.618,140.588C184.667,139.359 182.766,139.29 182.71,140.512Z" style="fill:rgb(104,165,44);fill-rule:nonzero;"/>
            </g>
            <g transform="matrix(-1.24672,0.242533,-0.242533,-1.24672,443.918,696.63)">
                <path d="M190.14,158.183C191.379,162.082 191.022,165.802 188.714,169.234C188.038,170.244 189.463,171.509 190.14,170.49C192.847,166.473 193.401,162.159 191.933,157.554C191.57,156.383 189.777,157.012 190.14,158.183Z" style="fill:rgb(104,165,44);fill-rule:nonzero;"/>
            </g>
            <g transform="matrix(-1.20915,0.3887,-0.3887,-1.20915,429.698,642.679)">
                <path d="M179.582,149.446C180.351,152.707 179.803,155.914 177.986,158.723C177.32,159.748 178.916,160.797 179.582,159.771C181.679,156.548 182.334,152.778 181.447,149.037C181.159,147.841 179.297,148.241 179.582,149.446Z" style="fill:rgb(104,165,44);fill-rule:nonzero;"/>
            </g>
            <g transform="matrix(0.0927602,1.2667,-1.2667,0.0927602,351.432,293.957)">
                <path d="M184.399,160.515C181.805,164.436 181.051,168.712 182.526,173.212C182.903,174.363 184.774,174.009 184.399,172.838C183.078,168.821 183.64,165.122 185.975,161.583C186.651,160.57 185.075,159.492 184.399,160.515Z" style="fill:rgb(104,165,44);fill-rule:nonzero;"/>
            </g>
            <g transform="matrix(0.0272279,1.2698,-1.2698,0.0272279,337.837,302.935)">
                <path d="M174.217,150.384C172.117,153.61 171.476,157.377 172.367,161.117C172.651,162.314 174.491,161.843 174.217,160.647C173.447,157.38 174.026,154.181 175.846,151.38C176.508,150.354 174.879,149.358 174.217,150.384Z" style="fill:rgb(104,165,44);fill-rule:nonzero;"/>
            </g>
            <g transform="matrix(-0.903139,0.893012,-0.893012,-0.903139,561.365,474.376)">
                <path d="M229.75,146.147C246.778,146.15 260.574,159.946 260.574,159.946C260.574,159.946 246.771,173.735 229.75,173.739C212.723,173.736 198.923,164.169 198.927,159.94C198.925,155.719 212.723,146.144 229.75,146.147Z" style="fill:rgb(149,193,39);fill-rule:nonzero;"/>
            </g>
            <g transform="matrix(-0.933313,-0.861426,0.861426,-0.933313,283.126,880.56)">
                <path d="M226.19,140.532C225.549,154.405 224.923,168.279 224.282,182.152C224.226,183.374 226.127,183.457 226.19,182.228C226.831,168.355 227.457,154.481 228.098,140.608C228.147,139.379 226.253,139.303 226.19,140.532Z" style="fill:rgb(104,165,44);fill-rule:nonzero;"/>
            </g>
            <g transform="matrix(-0.242533,-1.24672,1.24672,-0.242533,50.5036,865.257)">
                <path d="M222.801,163.703C224.04,167.602 223.683,171.322 221.375,174.754C220.699,175.764 222.124,177.029 222.801,176.01C225.508,171.993 226.062,167.679 224.594,163.074C224.229,161.913 222.436,162.542 222.801,163.703Z" style="fill:rgb(104,165,44);fill-rule:nonzero;"/>
            </g>
            <g transform="matrix(-0.3887,-1.20915,1.20915,-0.3887,118.985,875.196)">
                <path d="M232.967,153.731C233.736,156.993 233.188,160.199 231.371,163.008C230.705,164.033 232.301,165.082 232.967,164.056C235.064,160.833 235.719,157.063 234.832,153.322C234.544,152.126 232.679,152.535 232.967,153.731Z" style="fill:rgb(104,165,44);fill-rule:nonzero;"/>
            </g>
            <g transform="matrix(-1.2667,0.0927595,-0.0927595,-1.2667,498.545,721.522)">
                <path d="M221.359,155.965C218.765,159.886 218.011,164.162 219.486,168.662C219.863,169.813 221.734,169.459 221.359,168.288C220.038,164.271 220.6,160.572 222.935,157.033C223.611,156.02 222.035,154.942 221.359,155.965Z" style="fill:rgb(104,165,44);fill-rule:nonzero;"/>
            </g>
            <g transform="matrix(-1.2698,0.0272276,-0.0272276,-1.2698,516.429,711.457)">
                <path d="M231.977,147.164C229.877,150.39 229.236,154.157 230.127,157.897C230.411,159.094 232.251,158.623 231.977,157.427C231.207,154.16 231.786,150.961 233.606,148.16C234.268,147.134 232.649,146.139 231.977,147.164Z" style="fill:rgb(104,165,44);fill-rule:nonzero;"/>
            </g>
            <g transform="matrix(1.27009,0,0,-1.27009,-76.2444,834.164)">
                <path d="M204.38,169.24C201.85,169.24 199.8,171.29 199.8,173.82L199.8,223.03C199.8,225.56 201.85,227.61 204.38,227.61C206.91,227.61 208.96,225.56 208.96,223.03L208.96,173.82C208.97,171.29 206.92,169.24 204.38,169.24Z" style="fill:rgb(178,204,23);fill-rule:nonzero;"/>
            </g>
            <g transform="matrix(-0.00736557,1.27007,-1.27007,-0.00736557,370.951,257.731)">
                <path d="M204.395,132.735C221.425,132.736 235.225,146.526 235.225,146.526C235.225,146.526 221.425,160.326 204.395,160.325C187.365,160.324 173.569,150.754 173.564,146.534C173.56,142.314 187.365,132.733 204.395,132.735Z" style="fill:rgb(178,204,23);fill-rule:nonzero;"/>
            </g>
            <g transform="matrix(-1.26908,0.0505559,-0.0505559,-1.26908,450.146,691.886)">
                <path d="M204.39,125.683C203.757,139.559 203.125,153.435 202.492,167.311C202.433,168.54 204.341,168.616 204.39,167.387C205.023,153.511 205.656,139.635 206.289,125.759C206.347,124.54 204.449,124.465 204.39,125.683Z" style="fill:rgb(115,183,49);fill-rule:nonzero;"/>
            </g>
            <g transform="matrix(-1.05375,-0.709039,0.709039,-1.05375,299.235,837.671)">
                <path d="M208.767,149.007C210.04,152.851 209.651,156.716 207.316,160.071C206.624,161.067 208.058,162.32 208.767,161.313C211.487,157.385 212.07,152.931 210.572,148.394C210.187,147.231 208.382,147.844 208.767,149.007Z" style="fill:rgb(115,183,49);fill-rule:nonzero;"/>
            </g>
            <g transform="matrix(-1.13003,-0.579788,0.579788,-1.13003,341.444,785.84)">
                <path d="M207.862,134.8C208.656,138.034 208.091,141.314 206.26,144.097C205.581,145.119 207.189,146.149 207.862,145.117C209.954,141.943 210.634,138.098 209.728,134.405C209.434,133.218 207.568,133.613 207.862,134.8Z" style="fill:rgb(115,183,49);fill-rule:nonzero;"/>
            </g>
            <g transform="matrix(-0.835691,0.956425,-0.956425,-0.835691,491.061,457.492)">
                <path d="M200.523,145.02C197.868,148.988 197.235,153.431 198.802,157.945C199.206,159.106 200.914,158.264 200.523,157.118C199.182,153.257 199.864,149.434 202.118,146.071C202.796,145.053 201.208,144.011 200.523,145.02Z" style="fill:rgb(115,183,49);fill-rule:nonzero;"/>
            </g>
            <g transform="matrix(-0.879346,0.91645,-0.91645,-0.879346,482.538,438.781)">
                <path d="M201.669,130.951C199.573,134.126 198.921,137.967 199.821,141.664C200.107,142.858 201.962,142.408 201.669,141.221C200.873,137.979 201.464,134.71 203.296,131.926C203.975,130.9 202.34,129.933 201.669,130.951Z" style="fill:rgb(115,183,49);fill-rule:nonzero;"/>
            </g>
            <g transform="matrix(1.27009,0,0,-1.27009,-76.2444,860.239)">
                <path d="M250.4,211.15C250.07,211.17 249.74,211.17 249.42,211.15C247.67,215.31 243.71,218.36 238.9,218.71C237.73,218.79 236.58,218.7 235.49,218.47C233.95,223.08 229.77,226.55 224.63,226.92C221.98,227.11 219.47,226.45 217.35,225.17C214.56,227.58 211.02,229.16 207.06,229.45C206.81,229.47 206.56,229.46 206.31,229.47C206.06,229.5 205.82,229.54 205.56,229.56C201.6,229.85 197.87,228.79 194.77,226.81C192.86,228.38 190.47,229.4 187.82,229.59C182.67,229.96 178.04,227.13 175.86,222.79C174.81,223.17 173.69,223.43 172.52,223.51C167.71,223.86 163.35,221.4 161.02,217.54C160.7,217.6 160.38,217.65 160.05,217.68C155.71,217.99 151.93,214.73 151.62,210.39C151.31,206.05 154.57,202.27 158.91,201.96C160.25,201.86 161.53,202.11 162.67,202.62C164.72,200.47 167.53,199.04 170.73,198.81C172.22,198.7 173.66,198.88 175.01,199.26C176.92,195.53 180.66,192.85 185.14,192.53C187.56,192.36 189.86,192.9 191.86,193.97C194.2,190.5 198.05,188.09 202.55,187.77C207.36,187.42 211.78,189.53 214.59,193.03C216.56,191.25 219.1,190.08 221.96,189.87C226.44,189.55 230.53,191.66 232.96,195.08C234.25,194.5 235.65,194.12 237.13,194.02C240.33,193.79 243.32,194.8 245.65,196.64C246.71,195.97 247.94,195.55 249.28,195.45C253.62,195.14 257.4,198.4 257.71,202.74C258,207.06 254.74,210.84 250.4,211.15Z" style="fill:rgb(220,125,63);fill-rule:nonzero;"/>
            </g>
            <g transform="matrix(1.27009,0,0,-1.27009,-76.2444,856.022)">
                <path d="M186.71,207.03C186.71,206.773 186.685,206.518 186.635,206.265C186.584,206.013 186.51,205.768 186.412,205.53C186.313,205.292 186.192,205.066 186.049,204.852C185.906,204.638 185.744,204.44 185.562,204.258C185.38,204.076 185.182,203.914 184.968,203.771C184.754,203.628 184.528,203.507 184.29,203.408C184.052,203.31 183.807,203.236 183.555,203.185C183.302,203.135 183.047,203.11 182.79,203.11C182.533,203.11 182.278,203.135 182.025,203.185C181.773,203.236 181.528,203.31 181.29,203.408C181.052,203.507 180.826,203.628 180.612,203.771C180.398,203.914 180.2,204.076 180.018,204.258C179.836,204.44 179.674,204.638 179.531,204.852C179.388,205.066 179.267,205.292 179.168,205.53C179.07,205.768 178.996,206.013 178.945,206.265C178.895,206.518 178.87,206.773 178.87,207.03C178.87,207.287 178.895,207.542 178.945,207.795C178.996,208.047 179.07,208.292 179.168,208.53C179.267,208.768 179.388,208.994 179.531,209.208C179.674,209.422 179.836,209.62 180.018,209.802C180.2,209.984 180.398,210.146 180.612,210.289C180.826,210.432 181.052,210.553 181.29,210.652C181.528,210.75 181.773,210.824 182.025,210.875C182.278,210.925 182.533,210.95 182.79,210.95C183.047,210.95 183.302,210.925 183.555,210.875C183.807,210.824 184.052,210.75 184.29,210.652C184.528,210.553 184.754,210.432 184.968,210.289C185.182,210.146 185.38,209.984 185.562,209.802C185.744,209.62 185.906,209.422 186.049,209.208C186.192,208.994 186.313,208.768 186.412,208.53C186.51,208.292 186.584,208.047 186.635,207.795C186.685,207.542 186.71,207.287 186.71,207.03Z" style="fill:rgb(168,98,48);fill-rule:nonzero;"/>
            </g>
            <g transform="matrix(1.27009,0,0,-1.27009,-76.2444,831.204)">
                <path d="M185.19,197.26C185.19,196.964 185.133,196.68 185.02,196.407C184.907,196.133 184.746,195.892 184.537,195.683C184.328,195.474 184.087,195.313 183.813,195.2C183.54,195.087 183.256,195.03 182.96,195.03C182.664,195.03 182.38,195.087 182.107,195.2C181.833,195.313 181.592,195.474 181.383,195.683C181.174,195.892 181.013,196.133 180.9,196.407C180.787,196.68 180.73,196.964 180.73,197.26C180.73,197.556 180.787,197.84 180.9,198.113C181.013,198.387 181.174,198.628 181.383,198.837C181.592,199.046 181.833,199.207 182.107,199.32C182.38,199.433 182.664,199.49 182.96,199.49C183.256,199.49 183.54,199.433 183.813,199.32C184.087,199.207 184.328,199.046 184.537,198.837C184.746,198.628 184.907,198.387 185.02,198.113C185.133,197.84 185.19,197.556 185.19,197.26Z" style="fill:rgb(168,98,48);fill-rule:nonzero;"/>
            </g>
            <g transform="matrix(1.27009,0,0,-1.27009,-76.2444,847.69)">
                <path d="M175.83,203.75C175.83,203.454 175.773,203.17 175.66,202.897C175.547,202.623 175.386,202.382 175.177,202.173C174.968,201.964 174.727,201.803 174.453,201.69C174.18,201.577 173.896,201.52 173.6,201.52C173.304,201.52 173.02,201.577 172.747,201.69C172.473,201.803 172.232,201.964 172.023,202.173C171.814,202.382 171.653,202.623 171.54,202.897C171.427,203.17 171.37,203.454 171.37,203.75C171.37,204.046 171.427,204.33 171.54,204.603C171.653,204.877 171.814,205.118 172.023,205.327C172.232,205.536 172.473,205.697 172.747,205.81C173.02,205.923 173.304,205.98 173.6,205.98C173.896,205.98 174.18,205.923 174.453,205.81C174.727,205.697 174.968,205.536 175.177,205.327C175.386,205.118 175.547,204.877 175.66,204.603C175.773,204.33 175.83,204.046 175.83,203.75Z" style="fill:rgb(168,98,48);fill-rule:nonzero;"/>
            </g>
            <g transform="matrix(1.27009,0,0,-1.27009,-76.2444,864.404)">
                <path d="M230.76,210.33C230.76,210.073 230.735,209.818 230.685,209.565C230.634,209.313 230.56,209.068 230.462,208.83C230.363,208.592 230.242,208.366 230.099,208.152C229.956,207.938 229.794,207.74 229.612,207.558C229.43,207.376 229.232,207.214 229.018,207.071C228.804,206.928 228.578,206.807 228.34,206.708C228.102,206.61 227.857,206.536 227.605,206.485C227.352,206.435 227.097,206.41 226.84,206.41C226.583,206.41 226.328,206.435 226.075,206.485C225.823,206.536 225.578,206.61 225.34,206.708C225.102,206.807 224.876,206.928 224.662,207.071C224.448,207.214 224.25,207.376 224.068,207.558C223.886,207.74 223.724,207.938 223.581,208.152C223.438,208.366 223.317,208.592 223.218,208.83C223.12,209.068 223.045,209.313 222.995,209.565C222.945,209.818 222.92,210.073 222.92,210.33C222.92,210.587 222.945,210.842 222.995,211.095C223.045,211.347 223.12,211.592 223.218,211.83C223.317,212.068 223.438,212.294 223.581,212.508C223.724,212.722 223.886,212.92 224.068,213.102C224.25,213.284 224.448,213.446 224.662,213.589C224.876,213.732 225.102,213.853 225.34,213.952C225.578,214.05 225.823,214.124 226.075,214.175C226.328,214.225 226.583,214.25 226.84,214.25C227.097,214.25 227.352,214.225 227.605,214.175C227.857,214.124 228.102,214.05 228.34,213.952C228.578,213.853 228.804,213.732 229.018,213.589C229.232,213.446 229.43,213.284 229.612,213.102C229.794,212.92 229.956,212.722 230.099,212.508C230.242,212.294 230.363,212.068 230.462,211.83C230.56,211.592 230.634,211.347 230.685,211.095C230.735,210.842 230.76,210.587 230.76,210.33Z" style="fill:rgb(168,98,48);fill-rule:nonzero;"/>
            </g>
            <g transform="matrix(1.27009,0,0,-1.27009,-76.2444,839.765)">
                <path d="M230.31,200.63C230.31,200.334 230.253,200.05 230.14,199.777C230.027,199.503 229.866,199.262 229.657,199.053C229.448,198.844 229.207,198.683 228.933,198.57C228.66,198.457 228.376,198.4 228.08,198.4C227.784,198.4 227.5,198.457 227.227,198.57C226.953,198.683 226.712,198.844 226.503,199.053C226.294,199.262 226.133,199.503 226.02,199.777C225.907,200.05 225.85,200.334 225.85,200.63C225.85,200.926 225.907,201.21 226.02,201.483C226.133,201.757 226.294,201.998 226.503,202.207C226.712,202.416 226.953,202.577 227.227,202.69C227.5,202.803 227.784,202.86 228.08,202.86C228.376,202.86 228.66,202.803 228.933,202.69C229.207,202.577 229.448,202.416 229.657,202.207C229.866,201.998 230.027,201.757 230.14,201.483C230.253,201.21 230.31,200.926 230.31,200.63Z" style="fill:rgb(168,98,48);fill-rule:nonzero;"/>
            </g>
            <g transform="matrix(1.27009,0,0,-1.27009,-76.2444,859.502)">
                <path d="M238.64,208.4C238.64,208.104 238.583,207.82 238.47,207.547C238.357,207.273 238.196,207.032 237.987,206.823C237.778,206.614 237.537,206.453 237.263,206.34C236.99,206.227 236.706,206.17 236.41,206.17C236.114,206.17 235.83,206.227 235.557,206.34C235.283,206.453 235.042,206.614 234.833,206.823C234.624,207.032 234.463,207.273 234.35,207.547C234.237,207.82 234.18,208.104 234.18,208.4C234.18,208.696 234.237,208.98 234.35,209.253C234.463,209.527 234.624,209.768 234.833,209.977C235.042,210.186 235.283,210.347 235.557,210.46C235.83,210.573 236.114,210.63 236.41,210.63C236.706,210.63 236.99,210.573 237.263,210.46C237.537,210.347 237.778,210.186 237.987,209.977C238.196,209.768 238.357,209.527 238.47,209.253C238.583,208.98 238.64,208.696 238.64,208.4Z" style="fill:rgb(168,98,48);fill-rule:nonzero;"/>
            </g>
            <g transform="matrix(1.27009,0,0,-1.27009,-76.2444,1031.42)">
                <path d="M187.88,276.08C187.88,275.327 187.843,274.576 187.769,273.827C187.695,273.077 187.585,272.333 187.438,271.595C187.291,270.856 187.109,270.127 186.89,269.406C186.671,268.686 186.418,267.978 186.13,267.282C185.842,266.586 185.52,265.907 185.165,265.243C184.81,264.579 184.424,263.934 184.005,263.307C183.587,262.681 183.139,262.077 182.662,261.495C182.184,260.913 181.679,260.356 181.146,259.824C180.614,259.291 180.057,258.786 179.475,258.308C178.893,257.831 178.289,257.383 177.663,256.965C177.036,256.546 176.391,256.16 175.727,255.805C175.063,255.45 174.383,255.128 173.688,254.84C172.992,254.552 172.284,254.299 171.564,254.08C170.843,253.861 170.114,253.679 169.375,253.532C168.637,253.385 167.893,253.274 167.143,253.201C166.394,253.127 165.643,253.09 164.89,253.09C164.137,253.09 163.386,253.127 162.637,253.201C161.887,253.274 161.143,253.385 160.405,253.532C159.666,253.679 158.937,253.861 158.216,254.08C157.496,254.299 156.788,254.552 156.092,254.84C155.396,255.128 154.717,255.45 154.053,255.805C153.389,256.16 152.743,256.546 152.117,256.965C151.491,257.383 150.887,257.831 150.305,258.308C149.723,258.786 149.166,259.291 148.634,259.824C148.101,260.356 147.596,260.913 147.118,261.495C146.641,262.077 146.193,262.681 145.775,263.307C145.356,263.934 144.97,264.579 144.615,265.243C144.26,265.907 143.938,266.586 143.65,267.282C143.362,267.978 143.108,268.686 142.89,269.406C142.671,270.127 142.489,270.856 142.342,271.595C142.195,272.333 142.085,273.077 142.011,273.827C141.937,274.576 141.9,275.327 141.9,276.08C141.9,276.833 141.937,277.584 142.011,278.333C142.085,279.083 142.195,279.827 142.342,280.565C142.489,281.304 142.671,282.033 142.89,282.754C143.108,283.474 143.362,284.182 143.65,284.878C143.938,285.574 144.26,286.253 144.615,286.917C144.97,287.581 145.356,288.226 145.775,288.853C146.193,289.479 146.641,290.083 147.118,290.665C147.596,291.247 148.101,291.804 148.634,292.336C149.166,292.869 149.723,293.374 150.305,293.852C150.887,294.329 151.491,294.777 152.117,295.195C152.743,295.614 153.389,296 154.053,296.355C154.717,296.71 155.396,297.032 156.092,297.32C156.788,297.608 157.496,297.861 158.216,298.08C158.937,298.299 159.666,298.481 160.405,298.628C161.143,298.775 161.887,298.885 162.637,298.959C163.386,299.033 164.137,299.07 164.89,299.07C165.643,299.07 166.394,299.033 167.143,298.959C167.893,298.885 168.637,298.775 169.375,298.628C170.114,298.481 170.843,298.299 171.564,298.08C172.284,297.861 172.992,297.608 173.688,297.32C174.383,297.032 175.063,296.71 175.727,296.355C176.391,296 177.036,295.614 177.663,295.195C178.289,294.777 178.893,294.329 179.475,293.852C180.057,293.374 180.614,292.869 181.146,292.336C181.679,291.804 182.184,291.247 182.662,290.665C183.139,290.083 183.587,289.479 184.005,288.853C184.424,288.226 184.81,287.581 185.165,286.917C185.52,286.253 185.842,285.574 186.13,284.878C186.418,284.182 186.671,283.474 186.89,282.754C187.109,282.033 187.291,281.304 187.438,280.565C187.585,279.827 187.695,279.083 187.769,278.333C187.843,277.584 187.88,276.833 187.88,276.08Z" style="fill:rgb(65,67,67);fill-rule:nonzero;"/>
            </g>
            <g transform="matrix(1.27009,0,0,-1.27009,-76.2444,1031.42)">
                <path d="M175.74,276.08C175.74,275.368 175.67,274.662 175.531,273.963C175.392,273.265 175.187,272.586 174.914,271.928C174.641,271.27 174.307,270.644 173.911,270.052C173.516,269.46 173.066,268.912 172.562,268.408C172.058,267.904 171.51,267.454 170.918,267.059C170.326,266.663 169.7,266.329 169.042,266.056C168.384,265.783 167.705,265.577 167.007,265.438C166.308,265.299 165.602,265.23 164.89,265.23C164.178,265.23 163.472,265.299 162.773,265.438C162.074,265.578 161.396,265.783 160.738,266.056C160.08,266.329 159.454,266.663 158.862,267.059C158.27,267.454 157.722,267.904 157.218,268.408C156.714,268.912 156.264,269.46 155.869,270.052C155.473,270.644 155.139,271.27 154.866,271.928C154.593,272.586 154.387,273.265 154.248,273.963C154.109,274.662 154.04,275.368 154.04,276.08C154.04,276.792 154.109,277.498 154.248,278.197C154.387,278.895 154.593,279.574 154.866,280.232C155.139,280.89 155.473,281.516 155.869,282.108C156.264,282.7 156.714,283.248 157.218,283.752C157.722,284.256 158.27,284.706 158.862,285.101C159.454,285.497 160.08,285.831 160.738,286.104C161.396,286.377 162.074,286.583 162.773,286.721C163.472,286.86 164.178,286.93 164.89,286.93C165.602,286.93 166.308,286.86 167.007,286.721C167.705,286.583 168.384,286.377 169.042,286.104C169.7,285.831 170.326,285.497 170.918,285.101C171.51,284.706 172.058,284.256 172.562,283.752C173.066,283.248 173.516,282.7 173.911,282.108C174.307,281.516 174.641,280.89 174.914,280.232C175.187,279.574 175.392,278.895 175.531,278.197C175.67,277.498 175.74,276.792 175.74,276.08Z" style="fill:rgb(255,217,29);fill-rule:nonzero;"/>
            </g>
            <g transform="matrix(1.27009,0,0,-1.27009,-76.2444,977.176)">
                <path d="M163.75,229.83C163.56,229.83 163.36,229.86 163.17,229.91C162.01,230.23 161.32,231.43 161.64,232.6L174.02,277.77C174.34,278.93 175.54,279.62 176.71,279.3C177.87,278.98 178.56,277.78 178.24,276.61L165.86,231.44C165.59,230.46 164.71,229.83 163.75,229.83Z" style="fill:rgb(250,183,37);fill-rule:nonzero;"/>
            </g>
            <g transform="matrix(1.27009,0,0,-1.27009,-76.2444,930.551)">
                <path d="M253.07,206.13L194.13,206.13C192.39,206.13 190.73,206.86 189.55,208.15L145.56,256.3C145.23,256.66 144.93,257.05 144.71,257.48C143.04,260.82 145.27,264.97 149.18,265.21C160.81,265.93 181.66,266.61 203.92,264.46C229.37,261.99 250.18,256.44 258.91,253.85C261.54,253.07 263.34,250.65 263.34,247.91L263.34,216.41C263.34,210.73 258.74,206.13 253.07,206.13Z" style="fill:rgb(255,217,29);fill-rule:nonzero;"/>
            </g>
            <g transform="matrix(1.27009,0,0,-1.27009,-76.2444,884.053)">
                <path d="M204.97,227.85C182.71,230.01 161.77,229.79 150.14,228.99C141.82,228.42 140.76,226.2 141.36,222.83C142.24,217.91 149.17,219.28 150.23,219.34C161.86,220.06 182.71,220.74 204.97,218.59C230.98,216.07 254.41,209.66 263.82,206.84C266.22,206.12 268.74,207.53 269.38,209.96C269.99,212.27 268.66,214.64 266.38,215.33C256.77,218.23 231.52,225.27 204.97,227.85Z" style="fill:rgb(250,183,37);fill-rule:nonzero;"/>
            </g>
            <g transform="matrix(1.27009,0,0,-1.27009,-76.2444,954.644)">
                <path d="M157.05,209.83C156.14,209.83 155.29,210.41 154.98,211.32C154.59,212.46 155.21,213.7 156.35,214.09L187.34,224.53C191.57,226.36 196.05,227.29 200.67,227.29L245.91,227.29C245.99,227.29 254.11,227.38 258.4,232.07C260.09,233.91 261.48,235.71 262.7,237.29C263.86,238.78 264.86,240.08 265.92,241.19L289.36,274.81C289.63,275.2 290.03,275.49 290.48,275.64L308.72,281.51C309.87,281.88 311.1,281.25 311.47,280.1C311.84,278.95 311.21,277.72 310.06,277.35L292.52,271.71L269.41,238.56C269.34,238.47 269.27,238.38 269.19,238.29C268.25,237.32 267.28,236.07 266.16,234.62C264.88,232.97 263.43,231.11 261.63,229.13C256.02,222.99 246.32,222.92 245.91,222.92L200.67,222.92C196.63,222.92 192.71,222.1 189,220.49C188.94,220.46 188.88,220.44 188.82,220.42L157.74,209.95C157.51,209.87 157.28,209.83 157.05,209.83Z" style="fill:rgb(250,183,37);fill-rule:nonzero;"/>
            </g>
            <g transform="matrix(1.27009,0,0,-1.27009,-76.2444,876.165)">
                <path d="M311.47,218.3C311.1,219.45 309.87,220.08 308.72,219.71L290.92,213.99C291.31,212.57 291.84,211.19 292.47,209.84L292.52,209.91L310.06,215.55C311.21,215.92 311.84,217.15 311.47,218.3Z" style="fill:rgb(65,67,67);fill-rule:nonzero;"/>
            </g>
            <g transform="matrix(1.27009,0,0,-1.27009,-76.2444,1025.97)">
                <path d="M251.18,257.52C249.4,257.52 247.62,257.85 245.92,258.52L195.45,278.39C194.33,278.83 193.77,280.1 194.22,281.22C194.66,282.34 195.93,282.9 197.05,282.45L247.52,262.58C250.64,261.35 254.02,261.73 256.8,263.62C259.57,265.51 261.16,268.52 261.16,271.87L261.16,288.16C261.16,289.37 262.14,290.35 263.35,290.35C264.56,290.35 265.54,289.37 265.54,288.16L265.54,271.87C265.54,267.12 263.19,262.68 259.27,260.01C256.84,258.36 254.02,257.52 251.18,257.52Z" style="fill:rgb(250,183,37);fill-rule:nonzero;"/>
            </g>
        </g>
    </g>
</svg>
