<?xml version="1.0" encoding="UTF-8" standalone="no"?>
<!DOCTYPE svg PUBLIC "-//W3C//DTD SVG 1.1//EN" "http://www.w3.org/Graphics/SVG/1.1/DTD/svg11.dtd">
<svg width="100%" height="100%" viewBox="0 0 800 600" version="1.1" xmlns="http://www.w3.org/2000/svg" xmlns:xlink="http://www.w3.org/1999/xlink" xml:space="preserve" xmlns:serif="http://www.serif.com/" style="fill-rule:evenodd;clip-rule:evenodd;stroke-linejoin:round;stroke-miterlimit:2;">
    <g transform="matrix(1.85214,0,0,1.85214,41.1685,-59.8073)">
        <clipPath id="_clip1">
            <rect x="31.713" y="32.24" width="324" height="324"/>
        </clipPath>
        <g clip-path="url(#_clip1)">
            <g transform="matrix(1.27009,0,0,-1.27009,-76.2444,464.325)">
                <path d="M340.16,212.6C340.16,155.93 303.21,107.89 252.08,91.27C250.03,90.6 247.96,89.99 245.87,89.43C241.13,88.15 236.29,87.13 231.35,86.42C230.91,86.34 230.46,86.28 230.02,86.22C226.18,85.69 222.29,85.34 218.35,85.17C216.44,85.08 214.53,85.04 212.6,85.04C142.15,85.04 85.04,142.15 85.04,212.6C85.04,283.05 142.15,340.16 212.6,340.16C256.3,340.16 294.87,318.18 317.86,284.68C321.53,279.33 324.8,273.69 327.63,267.8C330.89,261.01 333.57,253.89 335.6,246.5C336.71,242.48 337.62,238.39 338.33,234.22C338.52,233.11 338.7,232 338.86,230.88C339.72,224.91 340.16,218.81 340.16,212.6Z" style="fill:rgb(239,128,140);fill-rule:nonzero;"/>
            </g>
            <g transform="matrix(1.27009,0,0,-1.27009,-76.2444,501.856)">
                <path d="M340.16,242.15C340.16,185.48 303.21,137.44 252.08,120.82C250.03,120.15 247.96,119.54 245.87,118.98L191.63,136.62L212.25,165.75L212.96,297.35L241.72,335.77L317.86,314.23C321.53,308.88 324.8,303.24 327.63,297.35C330.89,290.56 333.57,283.44 335.6,276.05C336.71,272.03 337.62,267.94 338.33,263.77C338.52,262.66 338.7,261.55 338.86,260.43C339.72,254.46 340.16,248.36 340.16,242.15Z" style="fill:rgb(235,91,96);fill-rule:nonzero;"/>
            </g>
            <g transform="matrix(0.892782,0.903365,-0.903365,0.892782,180.926,-179.6)">
                <path d="M200.417,193.11C210.784,193.105 219.184,201.506 219.184,201.506C219.184,201.506 210.784,209.906 200.417,209.911C190.051,209.915 181.651,204.089 181.65,201.515C181.649,198.941 190.051,193.114 200.417,193.11Z" style="fill:rgb(149,193,39);fill-rule:nonzero;"/>
            </g>
            <g transform="matrix(-0.861601,0.933152,-0.933152,-0.861601,539.038,169.074)">
                <path d="M200.035,189.708C199.649,198.149 199.262,206.605 198.876,215.046C198.846,215.795 200.005,215.841 200.035,215.092C200.421,206.651 200.808,198.195 201.194,189.754C201.224,189.005 200.065,188.959 200.035,189.708Z" style="fill:rgb(104,165,44);fill-rule:nonzero;"/>
            </g>
            <g transform="matrix(-1.24678,0.24224,-0.24224,-1.24678,489.147,388.113)">
                <path d="M204.559,200.47C205.309,202.847 205.094,205.107 203.69,207.197C203.275,207.81 204.145,208.58 204.559,207.967C206.205,205.526 206.543,202.893 205.651,200.091C205.434,199.376 204.341,199.755 204.559,200.47Z" style="fill:rgb(104,165,44);fill-rule:nonzero;"/>
            </g>
            <g transform="matrix(-1.20929,0.388267,-0.388267,-1.20929,492.378,338.421)">
                <path d="M198.139,195.154C198.613,197.144 198.284,199.087 197.167,200.797C196.757,201.422 197.728,202.059 198.139,201.435C199.411,199.469 199.809,197.182 199.271,194.898C199.093,194.179 197.963,194.425 198.139,195.154Z" style="fill:rgb(104,165,44);fill-rule:nonzero;"/>
            </g>
            <g transform="matrix(0.093136,1.26667,-1.26667,0.093136,420.543,-87.6561)">
                <path d="M201.066,201.892C199.488,204.272 199.025,206.885 199.927,209.619C200.156,210.317 201.295,210.1 201.066,209.392C200.263,206.946 200.599,204.695 202.031,202.544C202.438,201.922 201.483,201.27 201.066,201.892Z" style="fill:rgb(104,165,44);fill-rule:nonzero;"/>
            </g>
            <g transform="matrix(0.0264101,1.26982,-1.26982,0.0264101,418.657,-75.4087)">
                <path d="M194.859,195.722C193.588,197.686 193.2,199.979 193.733,202.26C193.908,202.984 195.034,202.708 194.859,201.974C194.39,199.984 194.741,198.041 195.847,196.333C196.26,195.702 195.272,195.101 194.859,195.722Z" style="fill:rgb(104,165,44);fill-rule:nonzero;"/>
            </g>
            <g transform="matrix(-0.903366,0.892782,-0.892782,-0.903366,597.948,159.282)">
                <path d="M228.672,193.145C239.039,193.14 247.439,201.541 247.439,201.541C247.439,201.541 239.039,209.941 228.672,209.946C218.306,209.95 209.906,204.124 209.905,201.55C209.904,198.976 218.306,193.149 228.672,193.145Z" style="fill:rgb(149,193,39);fill-rule:nonzero;"/>
            </g>
            <g transform="matrix(-0.933151,-0.861602,0.861602,-0.933151,248.4,565.409)">
                <path d="M226.501,189.726C226.115,198.168 225.729,206.623 225.343,215.064C225.313,215.813 226.471,215.859 226.501,215.11C226.887,206.669 227.274,198.214 227.66,189.773C227.697,189.017 226.539,188.971 226.501,189.726Z" style="fill:rgb(104,165,44);fill-rule:nonzero;"/>
            </g>
            <g transform="matrix(-0.242239,-1.24678,1.24678,-0.242239,5.30061,518.304)">
                <path d="M224.444,203.835C225.194,206.212 224.979,208.472 223.575,210.563C223.16,211.175 224.03,211.945 224.444,211.332C226.09,208.891 226.428,206.258 225.536,203.456C225.319,202.741 224.226,203.12 224.444,203.835Z" style="fill:rgb(104,165,44);fill-rule:nonzero;"/>
            </g>
            <g transform="matrix(-0.388265,-1.20929,1.20929,-0.388265,63.8244,536.236)">
                <path d="M230.632,197.769C231.107,199.759 230.777,201.701 229.661,203.412C229.25,204.036 230.222,204.674 230.632,204.049C231.904,202.084 232.302,199.796 231.765,197.513C231.589,196.784 230.457,197.04 230.632,197.769Z" style="fill:rgb(104,165,44);fill-rule:nonzero;"/>
            </g>
            <g transform="matrix(-1.26667,0.0931359,-0.0931359,-1.26667,508.69,418.489)">
                <path d="M223.566,199.122C221.987,201.502 221.525,204.115 222.427,206.849C222.656,207.547 223.795,207.33 223.566,206.622C222.763,204.176 223.099,201.925 224.531,199.774C224.938,199.152 223.983,198.5 223.566,199.122Z" style="fill:rgb(104,165,44);fill-rule:nonzero;"/>
            </g>
            <g transform="matrix(-1.26982,0.0264101,-0.0264101,-1.26982,512.783,418.789)">
                <path d="M230.019,193.763C228.748,195.727 228.36,198.019 228.893,200.301C229.068,201.024 230.194,200.748 230.019,200.014C229.55,198.024 229.901,196.081 231.007,194.373C231.41,193.741 230.422,193.141 230.019,193.763Z" style="fill:rgb(104,165,44);fill-rule:nonzero;"/>
            </g>
            <g transform="matrix(1.27009,0,0,-1.27009,-76.2444,431.48)">
                <path d="M213.33,156.7C210.54,156.7 208.28,158.96 208.28,161.75L208.28,237.59C208.28,240.38 210.54,242.64 213.33,242.64C216.12,242.64 218.38,240.38 218.38,237.59L218.38,161.75C218.38,158.96 216.12,156.7 213.33,156.7Z" style="fill:rgb(178,204,23);fill-rule:nonzero;"/>
            </g>
            <g transform="matrix(0.473978,1.17834,-1.17834,0.473978,234.283,-217.569)">
                <path d="M207.335,119.349C215.905,119.347 219.264,122.358 219.266,126.077C219.268,129.797 215.905,132.798 207.335,132.801C198.766,132.803 188.248,126.071 188.248,126.071C188.248,126.071 198.769,119.341 207.335,119.349Z" style="fill:rgb(250,183,37);fill-rule:nonzero;"/>
            </g>
            <g transform="matrix(-0.473979,-1.17833,1.17833,-0.473979,108.447,481.899)">
                <path d="M223.455,164.649C232.025,164.647 235.384,167.658 235.386,171.377C235.388,175.097 232.025,178.099 223.455,178.101C214.886,178.103 204.368,171.371 204.368,171.371C204.368,171.371 214.899,164.645 223.455,164.649Z" style="fill:rgb(250,183,37);fill-rule:nonzero;"/>
            </g>
            <g transform="matrix(-1.17833,0.473979,-0.473979,-1.17833,566.827,154.631)">
                <path d="M238.04,133.944C246.61,133.942 249.969,136.953 249.971,140.672C249.973,144.392 246.61,147.394 238.04,147.396C229.47,147.397 218.953,140.666 218.953,140.666C218.953,140.666 229.471,133.946 238.04,133.944Z" style="fill:rgb(250,183,37);fill-rule:nonzero;"/>
            </g>
            <g transform="matrix(1.17833,-0.473979,0.473979,1.17833,-132.628,28.7831)">
                <path d="M192.75,150.054C201.32,150.052 204.679,153.063 204.681,156.782C204.683,160.502 201.32,163.504 192.75,163.506C184.18,163.508 173.663,156.776 173.663,156.776C173.663,156.776 184.181,150.056 192.75,150.054Z" style="fill:rgb(250,183,37);fill-rule:nonzero;"/>
            </g>
            <g transform="matrix(1.16847,0.497805,-0.497805,1.16847,12.4502,-156.416)">
                <path d="M192.9,131.547C201.466,131.549 204.826,134.564 204.829,138.269C204.832,141.975 201.466,144.995 192.9,144.993C184.333,144.99 173.816,138.264 173.816,138.264C173.816,138.264 184.333,131.544 192.9,131.547Z" style="fill:rgb(250,183,37);fill-rule:nonzero;"/>
            </g>
            <g transform="matrix(-1.16847,-0.497805,0.497805,-1.16847,419.984,422.371)">
                <path d="M237.74,148.477C246.306,148.479 249.666,151.494 249.669,155.199C249.666,158.918 246.306,161.925 237.74,161.923C229.173,161.92 218.656,155.194 218.656,155.194C218.656,155.194 229.173,148.474 237.74,148.477Z" style="fill:rgb(250,183,37);fill-rule:nonzero;"/>
            </g>
            <g transform="matrix(-0.497804,1.16847,-1.16847,-0.497804,461.656,-112.876)">
                <path d="M223.785,117.602C232.351,117.604 235.711,120.619 235.714,124.324C235.711,128.043 232.351,131.05 223.785,131.048C215.218,131.045 204.701,124.319 204.701,124.319C204.701,124.319 215.218,117.599 223.785,117.602Z" style="fill:rgb(250,183,37);fill-rule:nonzero;"/>
            </g>
            <g transform="matrix(0.497804,-1.16847,1.16847,0.497804,-117.143,294.641)">
                <path d="M206.855,162.432C215.421,162.434 218.781,165.449 218.784,169.154C218.781,172.873 215.421,175.88 206.855,175.878C198.288,175.875 187.771,169.149 187.771,169.149C187.771,169.149 198.288,162.429 206.855,162.432Z" style="fill:rgb(250,183,37);fill-rule:nonzero;"/>
            </g>
            <g transform="matrix(-7.56006e-07,1.27009,-1.27009,-7.56006e-07,349.922,-190.508)">
                <path d="M216.54,115.86C225.11,115.86 228.47,118.87 228.47,122.58C228.47,126.29 225.11,129.3 216.54,129.3C207.97,129.3 197.45,122.58 197.45,122.58C197.45,122.58 207.97,115.86 216.54,115.86Z" style="fill:rgb(255,217,29);fill-rule:nonzero;"/>
            </g>
            <g transform="matrix(-9.45008e-07,-1.27009,1.27009,-9.45008e-07,-25.3771,414.372)">
                <path d="M216.54,166.19C225.11,166.19 228.47,169.2 228.47,172.91C228.47,176.62 225.11,179.63 216.54,179.63C207.97,179.63 197.45,172.91 197.45,172.91C197.45,172.91 207.98,166.19 216.54,166.19Z" style="fill:rgb(255,217,29);fill-rule:nonzero;"/>
            </g>
            <g transform="matrix(-1.27009,9.45007e-07,-9.45007e-07,-1.27009,528.623,299.594)">
                <path d="M241.7,141.03C250.27,141.03 253.63,144.04 253.63,147.75C253.63,151.46 250.27,154.47 241.7,154.47C233.13,154.47 222.61,147.75 222.61,147.75C222.61,147.75 233.13,141.03 241.7,141.03Z" style="fill:rgb(255,217,29);fill-rule:nonzero;"/>
            </g>
            <g transform="matrix(1.27009,0,0,-1.27009,-76.2444,299.569)">
                <path d="M191.38,154.46C199.95,154.46 203.31,151.45 203.31,147.74C203.31,144.03 199.95,141.02 191.38,141.02C182.81,141.02 172.29,147.74 172.29,147.74C172.29,147.74 182.81,154.46 191.38,154.46Z" style="fill:rgb(255,217,29);fill-rule:nonzero;"/>
            </g>
            <g transform="matrix(0.898089,0.89809,-0.89809,0.898089,114.739,-203.342)">
                <path d="M198.198,124.545C206.768,124.545 210.134,127.558 210.127,131.27C210.127,134.989 206.768,137.995 198.198,137.995C189.628,137.995 179.113,131.27 179.113,131.27C179.113,131.27 189.635,124.538 198.198,124.545Z" style="fill:rgb(255,217,29);fill-rule:nonzero;"/>
            </g>
            <g transform="matrix(-0.898089,-0.898089,0.898089,-0.898089,273.738,486.398)">
                <path d="M231.158,157.495C239.728,157.495 243.094,160.508 243.087,164.22C243.087,167.939 239.728,170.945 231.158,170.945C222.588,170.945 212.073,164.22 212.073,164.22C212.073,164.22 222.595,157.488 231.158,157.495Z" style="fill:rgb(255,217,29);fill-rule:nonzero;"/>
            </g>
            <g transform="matrix(-0.898089,0.898089,-0.898089,-0.898089,539.115,2.84169)">
                <path d="M231.158,124.545C239.728,124.545 243.094,127.558 243.087,131.27C243.087,134.989 239.728,137.995 231.158,137.995C222.588,137.995 212.073,131.27 212.073,131.27C212.073,131.27 222.595,124.552 231.158,124.545Z" style="fill:rgb(255,217,29);fill-rule:nonzero;"/>
            </g>
            <g transform="matrix(0.898089,-0.898089,0.898089,0.898089,-150.638,161.829)">
                <path d="M198.198,157.495C206.768,157.495 210.134,160.508 210.127,164.22C210.127,167.939 206.768,170.945 198.198,170.945C189.628,170.945 179.113,164.22 179.113,164.22C179.113,164.22 189.635,157.502 198.198,157.495Z" style="fill:rgb(255,217,29);fill-rule:nonzero;"/>
            </g>
            <g transform="matrix(1.27009,0,0,-1.27009,-76.2444,300.534)">
                <path d="M227.11,148.12C227.11,147.644 227.087,147.17 227.04,146.697C226.993,146.223 226.924,145.754 226.831,145.287C226.738,144.821 226.623,144.36 226.485,143.905C226.347,143.45 226.187,143.003 226.005,142.563C225.823,142.124 225.62,141.695 225.395,141.275C225.171,140.856 224.927,140.449 224.663,140.053C224.399,139.658 224.116,139.276 223.814,138.909C223.512,138.541 223.193,138.189 222.857,137.853C222.521,137.517 222.169,137.198 221.801,136.896C221.434,136.594 221.052,136.311 220.657,136.047C220.261,135.783 219.854,135.539 219.435,135.314C219.015,135.09 218.586,134.887 218.147,134.705C217.707,134.523 217.26,134.363 216.805,134.225C216.35,134.087 215.889,133.972 215.423,133.879C214.956,133.786 214.486,133.717 214.013,133.67C213.54,133.623 213.066,133.6 212.59,133.6C212.114,133.6 211.64,133.623 211.167,133.67C210.694,133.717 210.224,133.786 209.757,133.879C209.291,133.972 208.83,134.087 208.375,134.225C207.92,134.363 207.473,134.523 207.033,134.705C206.594,134.887 206.165,135.09 205.745,135.314C205.326,135.539 204.919,135.783 204.523,136.047C204.128,136.311 203.746,136.594 203.379,136.896C203.011,137.198 202.659,137.517 202.323,137.853C201.987,138.189 201.668,138.541 201.366,138.909C201.064,139.276 200.781,139.658 200.517,140.053C200.253,140.449 200.009,140.856 199.784,141.275C199.56,141.695 199.357,142.124 199.175,142.563C198.993,143.003 198.833,143.45 198.695,143.905C198.557,144.36 198.442,144.821 198.349,145.287C198.256,145.754 198.187,146.223 198.14,146.697C198.093,147.17 198.07,147.644 198.07,148.12C198.07,148.596 198.093,149.07 198.14,149.543C198.187,150.016 198.256,150.486 198.349,150.953C198.442,151.419 198.557,151.88 198.695,152.335C198.833,152.79 198.993,153.237 199.175,153.677C199.357,154.116 199.56,154.545 199.784,154.965C200.009,155.384 200.253,155.791 200.517,156.187C200.781,156.582 201.064,156.964 201.366,157.331C201.668,157.699 201.987,158.051 202.323,158.387C202.659,158.723 203.011,159.042 203.379,159.344C203.746,159.646 204.128,159.929 204.523,160.193C204.918,160.457 205.326,160.701 205.745,160.925C206.165,161.15 206.594,161.353 207.033,161.535C207.473,161.717 207.92,161.877 208.375,162.015C208.83,162.153 209.291,162.268 209.757,162.361C210.224,162.454 210.694,162.523 211.167,162.57C211.64,162.617 212.114,162.64 212.59,162.64C213.066,162.64 213.54,162.617 214.013,162.57C214.486,162.523 214.956,162.454 215.423,162.361C215.889,162.268 216.35,162.153 216.805,162.015C217.26,161.877 217.707,161.717 218.147,161.535C218.586,161.353 219.015,161.15 219.435,160.925C219.854,160.701 220.261,160.457 220.657,160.193C221.052,159.929 221.434,159.646 221.801,159.344C222.169,159.042 222.521,158.723 222.857,158.387C223.193,158.051 223.512,157.699 223.814,157.331C224.116,156.964 224.399,156.582 224.663,156.187C224.927,155.791 225.171,155.384 225.395,154.965C225.62,154.545 225.823,154.116 226.005,153.677C226.187,153.237 226.347,152.79 226.485,152.335C226.623,151.88 226.738,151.419 226.831,150.953C226.924,150.486 226.993,150.016 227.04,149.543C227.087,149.07 227.11,148.596 227.11,148.12Z" style="fill:rgb(65,67,67);fill-rule:nonzero;"/>
            </g>
            <g transform="matrix(1.27009,0,0,-1.27009,-76.2444,527.855)">
                <path d="M255.58,222.59L169.61,222.59C166.74,222.59 164.39,224.94 164.39,227.81L164.39,247.41C164.39,250.28 166.74,252.63 169.61,252.63L255.58,252.63C258.45,252.63 260.8,250.28 260.8,247.41L260.8,227.81C260.81,224.94 258.46,222.59 255.58,222.59Z" style="fill:rgb(255,217,29);fill-rule:nonzero;"/>
            </g>
            <g transform="matrix(1.27009,0,0,-1.27009,-76.2444,649.212)">
                <path d="M232.88,252.64L191.63,252.64C187.08,252.64 183.21,255.94 182.48,260.42L173.08,318.13L251.43,318.13L242.03,260.42C241.3,255.94 237.42,252.64 232.88,252.64Z" style="fill:rgb(250,183,37);fill-rule:nonzero;"/>
            </g>
        </g>
    </g>
</svg>
